<svg xmlns="http://www.w3.org/2000/svg" xmlns:xlink="http://www.w3.org/1999/xlink" width="199" zoomAndPan="magnify" viewBox="0 0 149.25 149.249997" height="199" preserveAspectRatio="xMidYMid meet" version="1.0"><defs><clipPath id="75b8c7a7cc"><path d="M 38.75 0 L 109.550781 0 L 109.550781 148.503906 L 38.75 148.503906 Z M 38.75 0 " clip-rule="nonzero"/></clipPath><clipPath id="de338f5777"><path d="M 80 146 L 83 146 L 83 148.503906 L 80 148.503906 Z M 80 146 " clip-rule="nonzero"/></clipPath></defs><g clip-path="url(#75b8c7a7cc)"><path fill="#000000" d="M 75.929688 126.199219 C 75.117188 126.773438 74.480469 126.519531 74.28125 125.59375 C 74.242188 125.425781 74.222656 125.253906 74.167969 125.089844 C 74.105469 124.902344 74.035156 124.703125 73.800781 124.625 C 73.464844 124.707031 73.285156 124.996094 73.0625 125.230469 C 72.65625 125.664062 72.1875 125.800781 71.621094 125.578125 C 71.464844 125.515625 71.296875 125.464844 71.128906 125.433594 C 70.886719 125.394531 70.691406 125.449219 70.527344 125.683594 C 70.140625 126.230469 69.746094 126.359375 69.109375 126.144531 C 68.757812 126.027344 68.429688 125.835938 68.089844 125.6875 C 67.890625 125.601562 67.691406 125.496094 67.480469 125.464844 C 67.195312 125.425781 67.054688 125.632812 67.144531 125.910156 C 67.183594 126.042969 67.246094 126.171875 67.296875 126.304688 C 67.621094 127.164062 67.46875 127.671875 66.75 128.226562 C 66.457031 128.457031 66.175781 128.710938 65.929688 128.988281 C 65.378906 129.613281 64.703125 129.816406 63.910156 129.546875 C 63.691406 129.472656 63.484375 129.355469 63.257812 129.292969 C 63.140625 129.261719 62.957031 129.25 62.878906 129.316406 C 62.507812 129.640625 62.164062 129.996094 61.820312 130.332031 C 62.125 130.691406 62.453125 130.960938 62.632812 131.308594 C 62.8125 131.660156 62.84375 132.089844 62.949219 132.515625 C 63.390625 132.105469 63.808594 131.648438 64.488281 131.777344 C 65.183594 131.90625 65.433594 132.46875 65.65625 133.0625 C 66.0625 132.921875 66.453125 132.871094 66.761719 133.136719 C 67.1875 133.5 67.570312 133.914062 67.964844 134.3125 C 68.027344 134.375 68.070312 134.46875 68.097656 134.558594 C 68.203125 134.882812 68.0625 135.152344 67.726562 135.238281 C 67.558594 135.28125 67.386719 135.289062 67.21875 135.320312 C 66.914062 135.375 66.667969 135.507812 66.476562 135.765625 C 66.285156 136.03125 66.070312 136.277344 65.847656 136.515625 C 65.625 136.757812 65.503906 137.023438 65.488281 137.355469 C 65.46875 137.714844 65.453125 138.078125 65.371094 138.425781 C 65.214844 139.085938 65.164062 139.75 65.171875 140.425781 C 65.183594 141.632812 65.183594 142.835938 65.023438 144.03125 C 64.957031 144.523438 64.859375 145.007812 64.773438 145.53125 C 64.945312 145.519531 65.097656 145.5 65.25 145.496094 C 65.789062 145.488281 66.046875 145.902344 65.777344 146.378906 C 65.648438 146.605469 65.453125 146.796875 65.277344 146.996094 C 65.074219 147.230469 64.863281 147.453125 64.636719 147.703125 C 65.523438 147.652344 66.398438 147.554688 67.175781 147.125 C 67.699219 146.832031 68.164062 146.425781 68.660156 146.074219 C 69.199219 145.691406 69.5625 145.175781 69.769531 144.546875 C 70.058594 143.664062 70.605469 142.964844 71.378906 142.484375 C 71.984375 142.105469 72.625 141.761719 73.292969 141.515625 C 74.078125 141.226562 74.910156 141.0625 75.71875 140.835938 C 76.820312 140.527344 77.609375 139.859375 78.074219 138.800781 C 78.464844 137.910156 78.648438 137.84375 79.546875 138.167969 C 80.101562 138.371094 80.589844 138.257812 81.027344 137.882812 C 81.414062 137.546875 81.417969 137.378906 81.035156 137.023438 C 80.792969 136.800781 80.644531 136.535156 80.621094 136.207031 C 80.601562 135.929688 80.691406 135.796875 80.960938 135.730469 C 81.230469 135.664062 81.503906 135.613281 81.777344 135.585938 C 82.132812 135.546875 82.191406 135.488281 82.199219 135.066406 C 82.082031 135.046875 81.960938 135.039062 81.84375 135 C 81.464844 134.878906 81.308594 134.527344 81.507812 134.183594 C 81.59375 134.03125 81.761719 133.917969 81.90625 133.804688 C 82 133.730469 82.167969 133.714844 82.222656 133.625 C 82.417969 133.308594 82.722656 133.171875 83.074219 133.058594 C 83.050781 132.773438 83.085938 132.480469 82.996094 132.230469 C 82.90625 131.964844 82.890625 131.746094 83.035156 131.519531 C 83.253906 131.175781 83.253906 130.8125 83.144531 130.4375 C 83.113281 130.332031 83.078125 130.226562 83.0625 130.117188 C 83.011719 129.699219 83.222656 129.457031 83.640625 129.449219 C 83.988281 129.445312 84.269531 129.609375 84.539062 129.804688 C 84.65625 129.890625 84.765625 129.988281 84.898438 130.089844 C 84.996094 129.878906 85.058594 129.714844 85.144531 129.566406 C 85.347656 129.21875 85.6875 129.085938 86.066406 129.191406 C 86.375 129.273438 86.578125 129.5625 86.589844 129.941406 C 86.59375 130.070312 86.589844 130.203125 86.589844 130.320312 C 86.859375 130.148438 87.101562 129.949219 87.375 129.828125 C 87.730469 129.671875 87.976562 129.976562 88.234375 130.140625 C 88.292969 130.097656 88.347656 130.078125 88.363281 130.042969 C 88.601562 129.527344 89.035156 129.347656 89.566406 129.285156 C 90.148438 129.214844 90.628906 128.917969 90.988281 128.457031 C 91.402344 127.921875 91.925781 127.660156 92.605469 127.6875 C 92.855469 127.695312 93.113281 127.636719 93.273438 127.414062 C 93.601562 126.953125 94.066406 126.792969 94.605469 126.75 C 95.007812 126.714844 95.074219 126.636719 95.078125 126.214844 C 95.078125 125.757812 95.277344 125.421875 95.671875 125.226562 C 95.976562 125.078125 96.300781 124.957031 96.628906 124.871094 C 97.152344 124.730469 97.625 124.53125 97.980469 124.09375 C 98.195312 123.824219 98.5 123.6875 98.851562 123.734375 C 99.152344 123.777344 99.367188 123.652344 99.550781 123.441406 C 99.703125 123.265625 99.84375 123.078125 99.980469 122.886719 C 100.183594 122.605469 100.460938 122.441406 100.785156 122.363281 C 100.984375 122.3125 101.1875 122.28125 101.386719 122.277344 C 101.792969 122.269531 102.058594 122.089844 102.210938 121.707031 C 102.382812 121.296875 102.726562 121.089844 103.152344 121.023438 C 103.445312 120.980469 103.742188 120.964844 104.035156 120.9375 C 104.480469 120.890625 104.726562 120.703125 104.828125 120.277344 C 104.90625 119.945312 104.964844 119.605469 104.988281 119.269531 C 105.027344 118.671875 105.222656 118.476562 105.835938 118.484375 C 105.882812 118.484375 105.925781 118.472656 106.015625 118.460938 C 106.121094 118.257812 106.238281 118.042969 106.34375 117.820312 C 106.480469 117.519531 106.449219 117.257812 106.183594 117.019531 C 106.015625 116.867188 105.871094 116.660156 105.78125 116.453125 C 105.53125 115.867188 105.925781 115.320312 106.558594 115.359375 C 106.722656 115.371094 106.886719 115.410156 107.0625 115.441406 C 107.144531 115.015625 107.027344 114.648438 106.871094 114.285156 C 106.699219 113.890625 106.734375 113.523438 107.050781 113.207031 C 107.09375 113.167969 107.121094 113.113281 107.148438 113.082031 C 106.996094 112.917969 106.8125 112.796875 106.738281 112.625 C 106.609375 112.328125 106.511719 112.007812 106.46875 111.6875 C 106.386719 111.101562 106.792969 110.730469 107.375 110.816406 C 107.445312 110.824219 107.515625 110.847656 107.679688 110.886719 C 107.613281 110.632812 107.585938 110.4375 107.507812 110.265625 C 107.375 109.964844 107.210938 109.683594 107.0625 109.390625 C 106.699219 108.660156 106.792969 107.992188 107.367188 107.414062 C 107.730469 107.046875 108.113281 106.703125 108.492188 106.355469 C 108.800781 106.070312 108.835938 105.898438 108.613281 105.539062 C 108.441406 105.257812 108.234375 105 108.054688 104.726562 C 107.742188 104.253906 107.4375 103.765625 107.402344 103.191406 C 107.367188 102.609375 107.152344 102.148438 106.769531 101.722656 C 106.609375 101.550781 106.496094 101.296875 106.457031 101.0625 C 106.371094 100.558594 106.730469 100.21875 107.234375 100.273438 C 107.351562 100.285156 107.46875 100.316406 107.671875 100.351562 C 107.519531 100.074219 107.414062 99.855469 107.289062 99.648438 C 107.003906 99.191406 106.816406 98.707031 106.738281 98.164062 C 106.695312 97.839844 106.792969 97.621094 107.050781 97.449219 C 107.214844 97.339844 107.382812 97.230469 107.578125 97.105469 C 107.496094 96.914062 107.417969 96.746094 107.351562 96.578125 C 107.265625 96.359375 107.136719 96.148438 107.113281 95.921875 C 107.015625 94.867188 106.679688 93.882812 106.335938 92.890625 C 106.140625 92.332031 105.945312 91.757812 105.867188 91.175781 C 105.699219 89.890625 105.335938 88.683594 104.699219 87.546875 C 104.167969 86.589844 103.914062 85.542969 103.886719 84.445312 C 103.871094 83.960938 103.851562 83.476562 103.824219 82.992188 C 103.796875 82.476562 103.539062 82.121094 103.082031 81.886719 C 101.484375 81.070312 100.292969 79.863281 99.519531 78.230469 C 99.195312 77.546875 98.699219 76.976562 98.109375 76.5 C 97.636719 76.117188 97.308594 75.671875 97.390625 75.019531 C 96.773438 75.148438 96.25 74.910156 96.34375 73.773438 C 95.679688 73.734375 95.402344 73.320312 95.378906 72.632812 C 95.117188 72.675781 94.894531 72.71875 94.667969 72.753906 C 94.378906 72.796875 94.085938 72.875 93.796875 72.867188 C 93.390625 72.851562 93.089844 72.613281 92.933594 72.238281 C 92.785156 71.882812 92.933594 71.605469 93.230469 71.386719 C 93.25 71.371094 93.257812 71.335938 93.28125 71.285156 C 93.117188 71.152344 92.960938 70.996094 92.777344 70.882812 C 92.351562 70.621094 91.921875 70.371094 91.484375 70.128906 C 90.855469 69.78125 90.246094 69.40625 89.726562 68.898438 C 89.324219 68.507812 88.902344 68.132812 88.472656 67.773438 C 87.582031 67.03125 86.800781 66.226562 86.515625 65.042969 C 86.429688 64.675781 86.207031 64.359375 85.914062 64.113281 C 85.605469 63.851562 85.28125 63.605469 84.960938 63.359375 C 84.726562 63.175781 84.460938 63.03125 84.25 62.828125 C 83.265625 61.890625 82.292969 60.941406 81.605469 59.742188 C 81.4375 59.445312 81.1875 59.195312 81 58.90625 C 80.730469 58.492188 80.453125 58.070312 80.234375 57.625 C 79.988281 57.125 79.996094 56.621094 80.460938 56.214844 C 80.660156 56.039062 80.65625 55.835938 80.539062 55.625 C 80.445312 55.464844 80.347656 55.300781 80.226562 55.160156 C 79.691406 54.539062 79.078125 54.011719 78.347656 53.636719 C 77.890625 53.402344 77.425781 53.175781 76.96875 52.941406 C 75.703125 52.296875 74.789062 51.34375 74.367188 49.957031 C 74.316406 49.792969 74.257812 49.628906 74.191406 49.46875 C 73.910156 48.792969 73.644531 48.109375 73.324219 47.449219 C 73.101562 46.988281 72.792969 46.570312 72.527344 46.128906 C 72.230469 45.628906 72.214844 45.121094 72.53125 44.621094 C 72.65625 44.421875 72.789062 44.226562 72.933594 44.042969 C 73.359375 43.511719 73.566406 42.910156 73.578125 42.226562 C 73.582031 41.917969 73.628906 41.597656 73.710938 41.300781 C 73.855469 40.777344 73.894531 40.257812 73.800781 39.722656 C 73.667969 38.984375 73.835938 38.324219 74.34375 37.765625 C 74.699219 37.375 74.941406 36.925781 75.070312 36.417969 C 75.300781 35.515625 75.914062 35.0625 76.796875 35.050781 C 77.535156 35.039062 78.050781 34.757812 78.398438 34.125 C 78.425781 34.070312 78.472656 34.023438 78.507812 33.972656 C 79.003906 33.277344 79.671875 32.863281 80.507812 32.699219 C 81.253906 32.554688 81.449219 32.285156 81.386719 31.535156 C 81.363281 31.242188 81.304688 30.949219 81.273438 30.652344 C 81.242188 30.375 81.210938 30.089844 81.214844 29.8125 C 81.230469 29.132812 81.496094 28.566406 82.042969 28.152344 C 82.242188 28 82.441406 27.847656 82.65625 27.71875 C 83.039062 27.496094 83.273438 27.203125 83.226562 26.734375 C 83.214844 26.628906 83.246094 26.515625 83.261719 26.410156 C 83.351562 25.773438 83.578125 25.621094 84.21875 25.761719 C 84.242188 25.769531 84.269531 25.746094 84.300781 25.730469 C 84.484375 25.132812 84.886719 24.789062 85.519531 24.75 C 85.75 24.734375 86.007812 24.71875 86.214844 24.800781 C 86.980469 25.113281 87.734375 25.019531 88.496094 24.8125 C 88.539062 24.800781 88.585938 24.796875 88.632812 24.792969 C 88.933594 24.757812 89.15625 24.621094 89.292969 24.339844 C 89.503906 23.917969 89.828125 23.609375 90.269531 23.441406 C 90.328125 23.421875 90.382812 23.390625 90.4375 23.359375 C 90.785156 23.144531 90.828125 22.976562 90.628906 22.625 C 90.570312 22.515625 90.488281 22.417969 90.433594 22.308594 C 90.167969 21.742188 90.4375 21.300781 91.058594 21.273438 C 91.152344 21.269531 91.246094 21.277344 91.339844 21.28125 C 91.5 21.289062 91.613281 21.226562 91.667969 21.074219 C 91.78125 20.738281 92.0625 20.621094 92.355469 20.492188 C 92.589844 20.386719 92.804688 20.226562 93.007812 20.0625 C 93.164062 19.9375 93.289062 19.773438 93.425781 19.621094 C 93.820312 19.179688 94.519531 19.195312 94.765625 19.722656 C 94.8125 19.824219 94.878906 19.941406 95.0625 19.882812 C 94.84375 19.398438 94.550781 19.003906 94.203125 18.640625 C 93.925781 18.359375 93.632812 18.246094 93.234375 18.402344 C 92.570312 18.660156 91.867188 18.699219 91.164062 18.660156 C 90.429688 18.617188 89.6875 18.558594 89.089844 18.058594 C 88.703125 17.734375 88.265625 17.566406 87.777344 17.488281 C 87.640625 17.464844 87.503906 17.433594 87.367188 17.402344 C 86.589844 17.207031 86.074219 16.746094 85.894531 15.941406 C 85.859375 15.792969 85.800781 15.652344 85.753906 15.515625 C 85.585938 15.5 85.460938 15.476562 85.339844 15.480469 C 84.960938 15.488281 84.625 15.375 84.363281 15.105469 C 84.074219 14.8125 83.738281 14.78125 83.367188 14.855469 C 83.183594 14.894531 83.003906 14.949219 82.820312 14.96875 C 82.464844 15 82.257812 14.769531 82.308594 14.417969 C 82.320312 14.328125 82.378906 14.242188 82.394531 14.152344 C 82.527344 13.386719 82.527344 12.660156 81.890625 12.074219 C 81.6875 11.886719 81.496094 11.652344 81.402344 11.398438 C 81.175781 10.796875 81.074219 10.160156 81.121094 9.511719 C 81.164062 8.910156 81.472656 8.539062 82.058594 8.367188 C 82.234375 8.3125 82.414062 8.269531 82.605469 8.214844 C 82.609375 8.082031 82.625 7.976562 82.617188 7.871094 C 82.589844 7.480469 82.730469 7.167969 83.027344 6.921875 C 83.113281 6.851562 83.195312 6.78125 83.285156 6.71875 C 83.480469 6.589844 83.523438 6.414062 83.382812 6.242188 C 83.210938 6.023438 83.03125 5.792969 82.800781 5.648438 C 82.101562 5.210938 81.347656 5.117188 80.566406 5.4375 C 80.292969 5.550781 80.019531 5.664062 79.738281 5.753906 C 79.195312 5.929688 78.726562 5.800781 78.34375 5.367188 C 78.261719 5.273438 78.183594 5.175781 78.101562 5.082031 C 77.75 4.675781 77.308594 4.539062 76.796875 4.675781 C 76.449219 4.765625 76.109375 4.875 75.773438 5 C 75.121094 5.238281 74.5625 5.109375 74.039062 4.660156 C 73.808594 4.460938 73.523438 4.292969 73.234375 4.203125 C 72.199219 3.875 71.480469 3.238281 71.085938 2.210938 C 70.855469 1.605469 70.394531 1.179688 69.816406 0.890625 C 69.574219 0.769531 69.335938 0.773438 69.128906 0.976562 C 68.558594 1.546875 67.855469 1.855469 67.074219 2.007812 C 66.691406 2.082031 66.308594 2.15625 65.933594 2.269531 C 65.59375 2.371094 65.265625 2.519531 65.066406 2.871094 C 65.175781 3.035156 65.285156 3.183594 65.378906 3.34375 C 65.589844 3.699219 65.695312 4.09375 65.449219 4.453125 C 64.957031 5.164062 64.382812 5.816406 63.542969 6.121094 C 63.152344 6.261719 62.726562 6.316406 62.3125 6.363281 C 61.933594 6.40625 61.625 6.523438 61.398438 6.847656 C 61.285156 7.015625 61.132812 7.15625 60.972656 7.28125 C 60.617188 7.558594 60.308594 7.554688 59.953125 7.277344 C 59.730469 7.105469 59.53125 6.902344 59.316406 6.722656 C 58.878906 6.359375 58.390625 6.382812 57.910156 6.605469 C 57.445312 6.820312 57.207031 7.203125 57.234375 7.734375 C 57.25 8.015625 57.265625 8.296875 57.253906 8.578125 C 57.230469 9.226562 56.734375 9.597656 56.101562 9.460938 C 55.75 9.382812 55.460938 9.191406 55.25 8.914062 C 54.992188 8.566406 54.769531 8.1875 54.539062 7.816406 C 54.433594 7.644531 54.351562 7.453125 54.234375 7.292969 C 54.070312 7.078125 53.867188 6.886719 53.5625 6.960938 C 53.277344 7.03125 53.199219 7.273438 53.128906 7.523438 C 53.09375 7.65625 53.0625 7.796875 53.011719 7.925781 C 52.953125 8.070312 52.894531 8.21875 52.808594 8.34375 C 52.484375 8.804688 51.890625 8.777344 51.621094 8.28125 C 51.496094 8.050781 51.425781 7.789062 51.339844 7.539062 C 51.277344 7.363281 51.226562 7.183594 51.175781 7.003906 C 51.113281 6.773438 50.953125 6.722656 50.742188 6.757812 C 50.445312 6.808594 50.230469 6.992188 50.066406 7.222656 C 49.894531 7.460938 49.757812 7.730469 49.605469 7.980469 C 49.34375 8.40625 49.105469 8.851562 48.8125 9.253906 C 48.425781 9.785156 47.867188 10 47.21875 9.960938 C 46.703125 9.925781 46.28125 9.683594 46.152344 9.1875 C 46.011719 8.652344 45.660156 8.429688 45.203125 8.265625 C 44.5625 8.039062 43.992188 7.703125 43.511719 7.207031 C 43.179688 6.863281 42.945312 6.847656 42.578125 7.167969 C 42.289062 7.421875 42.03125 7.722656 41.789062 8.023438 C 41.058594 8.925781 40.523438 9.992188 39.5625 10.71875 C 39.730469 10.957031 39.925781 11.15625 40.03125 11.390625 C 40.335938 12.089844 40.832031 12.515625 41.546875 12.792969 C 42.136719 13.027344 42.589844 13.515625 42.71875 14.171875 C 42.792969 14.546875 42.960938 14.738281 43.292969 14.875 C 43.6875 15.042969 43.9375 15.351562 44.011719 15.792969 C 44.078125 16.207031 44.15625 16.625 44.246094 17.035156 C 44.304688 17.300781 44.339844 17.589844 44.710938 17.820312 C 44.75 17.742188 44.800781 17.660156 44.828125 17.574219 C 44.933594 17.265625 45.039062 16.957031 45.121094 16.640625 C 45.21875 16.28125 45.355469 16.117188 45.617188 16.105469 C 45.867188 16.09375 46.089844 16.257812 46.195312 16.566406 C 46.261719 16.753906 46.300781 16.953125 46.351562 17.152344 C 46.425781 17.164062 46.484375 17.1875 46.542969 17.183594 C 47.070312 17.136719 47.441406 17.488281 47.367188 18.164062 C 47.296875 18.847656 47.070312 19.472656 46.566406 19.96875 C 46.503906 20.03125 46.449219 20.105469 46.378906 20.1875 C 46.699219 20.632812 46.558594 21.023438 46.261719 21.398438 C 46.222656 21.445312 46.183594 21.496094 46.148438 21.546875 C 45.875 21.921875 45.859375 22.050781 46.132812 22.425781 C 46.324219 22.691406 46.546875 22.9375 46.785156 23.160156 C 47.40625 23.726562 47.910156 24.363281 48.226562 25.15625 C 48.3125 25.375 48.484375 25.605469 48.683594 25.722656 C 49.320312 26.109375 49.988281 26.441406 50.628906 26.789062 C 51.269531 26.351562 51.851562 26.570312 52.425781 26.847656 C 52.59375 26.929688 52.746094 27.054688 52.917969 27.105469 C 53.277344 27.203125 53.566406 27.398438 53.847656 27.632812 C 53.972656 27.738281 54.117188 27.820312 54.253906 27.914062 C 54.507812 27.636719 54.425781 27.339844 54.425781 27.070312 C 54.429688 26.398438 54.710938 25.929688 55.339844 25.683594 C 55.863281 25.480469 56.382812 25.265625 56.910156 25.082031 C 58.015625 24.695312 59.019531 24.824219 59.894531 25.671875 C 60.449219 26.210938 61.09375 26.617188 61.785156 26.957031 C 62.089844 27.109375 62.386719 27.289062 62.664062 27.492188 C 63.246094 27.925781 63.320312 28.488281 62.890625 29.078125 C 62.800781 29.203125 62.695312 29.328125 62.570312 29.417969 C 62.132812 29.71875 61.6875 30 61.246094 30.292969 C 61.152344 30.351562 61.058594 30.410156 60.96875 30.46875 C 60.976562 30.503906 60.984375 30.535156 60.992188 30.570312 C 61.472656 30.574219 61.953125 30.574219 62.429688 30.578125 C 63.207031 30.582031 63.578125 30.898438 63.707031 31.660156 C 63.734375 31.828125 63.75 32 63.792969 32.167969 C 63.890625 32.566406 64.027344 32.652344 64.429688 32.570312 C 64.582031 32.539062 64.730469 32.488281 64.882812 32.453125 C 65.25 32.363281 65.585938 32.441406 65.808594 32.742188 C 66.046875 33.066406 66.285156 33.410156 66.421875 33.78125 C 66.6875 34.511719 66.464844 35.089844 65.824219 35.527344 C 65.59375 35.6875 65.355469 35.835938 65.125 35.988281 C 65.484375 36.515625 65.460938 36.816406 65.015625 37.234375 C 64.835938 37.40625 64.621094 37.539062 64.417969 37.683594 C 64.265625 37.789062 64.105469 37.886719 63.949219 37.992188 C 63.730469 38.136719 63.609375 38.324219 63.605469 38.613281 C 63.601562 39.058594 63.460938 39.191406 63.011719 39.21875 C 62.699219 39.238281 62.386719 39.199219 62.078125 39.230469 C 61.453125 39.296875 60.941406 39.101562 60.527344 38.636719 C 60.242188 38.3125 59.90625 38.25 59.511719 38.410156 C 58.972656 38.625 58.410156 38.738281 57.820312 38.710938 C 57.796875 38.710938 57.769531 38.734375 57.792969 38.722656 C 57.851562 39.15625 57.933594 39.566406 57.960938 39.980469 C 58 40.613281 57.734375 41.101562 57.175781 41.417969 C 56.871094 41.589844 56.5625 41.761719 56.253906 41.933594 C 56.652344 42.304688 56.925781 42.394531 57.679688 42.4375 C 58.054688 42.457031 58.425781 42.480469 58.800781 42.519531 C 59.175781 42.558594 59.425781 42.777344 59.558594 43.128906 C 59.605469 43.261719 59.652344 43.398438 59.675781 43.535156 C 59.714844 43.753906 59.859375 43.855469 60.042969 43.914062 C 60.191406 43.960938 60.34375 43.996094 60.496094 44.027344 C 60.855469 44.097656 61.117188 44.304688 61.316406 44.605469 C 61.394531 44.71875 61.460938 44.839844 61.554688 44.988281 C 62.175781 44.847656 62.53125 45.222656 62.878906 45.660156 C 63.480469 46.421875 64.214844 46.964844 65.25 46.949219 C 65.6875 46.941406 66.070312 47.117188 66.398438 47.40625 C 66.757812 47.71875 67.15625 47.890625 67.644531 47.792969 C 67.96875 47.726562 68.183594 47.902344 68.304688 48.1875 C 68.515625 48.671875 68.546875 49.15625 68.289062 49.636719 C 68.171875 49.855469 68.050781 50.074219 67.941406 50.300781 C 67.765625 50.667969 67.847656 51.011719 68.113281 51.292969 C 68.28125 51.472656 68.492188 51.613281 68.699219 51.75 C 68.851562 51.851562 69.03125 51.921875 69.199219 52 C 69.632812 52.203125 69.9375 52.515625 70.085938 52.976562 C 70.117188 53.070312 70.1875 53.152344 70.234375 53.242188 C 70.3125 53.21875 70.355469 53.207031 70.398438 53.1875 C 71.089844 52.875 71.320312 52.910156 71.730469 53.535156 C 72.308594 54.410156 72.855469 55.308594 72.933594 56.398438 C 72.960938 56.820312 73.132812 57.179688 73.410156 57.492188 C 73.820312 57.964844 74.238281 58.429688 74.660156 58.890625 C 75.363281 59.664062 76.074219 60.433594 76.78125 61.203125 C 77.175781 61.628906 77.597656 62.015625 78.171875 62.203125 C 79.289062 62.566406 79.984375 63.328125 80.230469 64.480469 C 80.328125 64.941406 80.570312 65.21875 81.03125 65.34375 C 81.511719 65.472656 81.785156 65.835938 81.875 66.316406 C 81.921875 66.558594 81.925781 66.8125 81.917969 67.0625 C 81.902344 67.484375 81.871094 67.90625 81.839844 68.324219 C 81.8125 68.6875 81.933594 68.96875 82.257812 69.148438 C 82.824219 69.464844 83.105469 69.953125 83.117188 70.605469 C 83.121094 70.621094 83.160156 70.640625 83.226562 70.695312 C 83.363281 70.535156 83.5 70.375 83.632812 70.210938 C 83.757812 70.054688 83.859375 69.867188 84.003906 69.734375 C 84.347656 69.417969 84.808594 69.496094 85.027344 69.90625 C 85.109375 70.054688 85.148438 70.226562 85.179688 70.394531 C 85.21875 70.625 85.222656 70.863281 85.253906 71.09375 C 85.304688 71.449219 85.367188 71.507812 85.71875 71.566406 C 85.871094 71.59375 86.027344 71.613281 86.179688 71.632812 C 86.863281 71.71875 87.25 72.011719 87.390625 72.679688 C 87.507812 73.226562 87.679688 73.695312 88.234375 73.925781 C 88.292969 73.949219 88.339844 74 88.378906 74.042969 C 88.726562 74.425781 89.121094 74.597656 89.664062 74.542969 C 90.222656 74.484375 90.554688 74.929688 90.46875 75.492188 C 90.402344 75.921875 90.164062 76.242188 89.832031 76.496094 C 89.582031 76.683594 89.3125 76.84375 89.0625 77.03125 C 88.789062 77.230469 88.507812 77.429688 88.335938 77.757812 C 88.59375 78.097656 88.839844 78.414062 89.082031 78.742188 C 89.257812 78.980469 89.40625 79.242188 89.59375 79.464844 C 90.0625 80.015625 90.609375 80.480469 91.1875 80.910156 C 91.460938 81.113281 91.722656 81.34375 91.960938 81.585938 C 92.605469 82.242188 92.660156 82.753906 92.210938 83.570312 C 92.085938 83.804688 91.953125 84.039062 91.867188 84.285156 C 91.679688 84.816406 91.378906 85.222656 90.816406 85.390625 C 90.792969 85.398438 90.78125 85.4375 90.746094 85.492188 C 90.859375 85.78125 91.144531 85.9375 91.351562 86.164062 C 91.742188 86.589844 91.757812 86.988281 91.347656 87.394531 C 91.152344 87.585938 91.089844 87.777344 91.164062 88.019531 C 91.257812 88.332031 91.238281 88.632812 91.117188 88.9375 C 91.078125 89.03125 91.066406 89.160156 91.097656 89.25 C 91.242188 89.609375 91.195312 89.949219 91.0625 90.296875 C 90.898438 90.71875 90.761719 91.152344 90.582031 91.566406 C 90.324219 92.167969 90.03125 92.757812 89.769531 93.355469 C 89.515625 93.941406 89.550781 94.515625 89.886719 95.0625 C 89.984375 95.222656 90.078125 95.386719 90.1875 95.539062 C 90.542969 96.023438 90.804688 96.527344 90.472656 97.121094 C 90.554688 97.195312 90.59375 97.25 90.644531 97.28125 C 91.113281 97.558594 91.328125 97.964844 91.363281 98.515625 C 91.382812 98.800781 91.484375 99.105469 91.636719 99.347656 C 92.386719 100.558594 92.335938 101.773438 91.722656 103.007812 C 91.570312 103.316406 91.410156 103.617188 91.253906 103.925781 C 90.957031 104.507812 90.878906 105.113281 91.109375 105.738281 C 91.390625 106.492188 91.507812 107.28125 91.554688 108.078125 C 91.621094 109.113281 91.5625 110.144531 91.242188 111.140625 C 91.039062 111.769531 90.730469 112.347656 90.234375 112.804688 C 89.878906 113.132812 89.335938 113.050781 89.230469 112.515625 C 89.140625 112.070312 88.765625 111.910156 88.335938 112.101562 C 88.113281 112.203125 87.902344 112.347656 87.714844 112.507812 C 87.316406 112.859375 86.941406 113.234375 86.554688 113.597656 C 86.234375 113.902344 85.886719 114.171875 85.457031 114.289062 C 85.171875 114.371094 84.878906 114.417969 84.585938 114.460938 C 84.089844 114.539062 83.65625 114.714844 83.371094 115.160156 C 83.320312 115.238281 83.253906 115.308594 83.1875 115.371094 C 82.800781 115.746094 82.394531 115.757812 81.980469 115.414062 C 81.910156 115.355469 81.839844 115.292969 81.800781 115.261719 C 81.363281 115.324219 80.96875 115.375 80.535156 115.4375 C 80.660156 115.917969 80.621094 116.355469 80.339844 116.757812 C 80.289062 116.824219 80.316406 116.964844 80.339844 117.0625 C 80.371094 117.183594 80.4375 117.292969 80.488281 117.40625 C 80.59375 117.628906 80.644531 117.859375 80.476562 118.070312 C 80.292969 118.300781 80.046875 118.269531 79.792969 118.222656 C 79.488281 118.164062 79.175781 118.09375 78.871094 118.105469 C 78.203125 118.136719 77.609375 117.976562 77.082031 117.554688 C 76.933594 117.4375 76.738281 117.378906 76.589844 117.300781 C 76.367188 117.667969 76.214844 118.011719 75.980469 118.292969 C 75.699219 118.632812 75.25 118.453125 74.832031 118.542969 C 74.890625 118.710938 74.921875 118.863281 74.996094 118.996094 C 75.191406 119.347656 75.261719 119.726562 75.238281 120.125 C 75.226562 120.296875 75.230469 120.46875 75.234375 120.640625 C 75.28125 121.808594 75.828125 122.578125 76.917969 122.992188 C 77.078125 123.054688 77.242188 123.101562 77.398438 123.167969 C 77.585938 123.242188 77.785156 123.304688 77.953125 123.410156 C 78.34375 123.648438 78.484375 124.023438 78.34375 124.460938 C 78.273438 124.679688 78.167969 124.894531 78.050781 125.09375 C 77.867188 125.398438 77.820312 125.667969 78.003906 126.007812 C 78.265625 126.496094 77.996094 126.910156 77.441406 126.957031 C 77.046875 126.992188 76.707031 126.851562 76.40625 126.605469 C 76.25 126.476562 76.097656 126.34375 75.929688 126.199219 Z M 83.242188 14.085938 C 83.902344 13.957031 84.429688 14.09375 84.898438 14.515625 C 85.042969 14.644531 85.292969 14.6875 85.5 14.703125 C 86.195312 14.753906 86.484375 14.929688 86.613281 15.609375 C 86.746094 16.292969 87.164062 16.597656 87.785156 16.695312 C 88.480469 16.800781 89.105469 17.03125 89.648438 17.492188 C 89.957031 17.757812 90.363281 17.800781 90.75 17.835938 C 91.5625 17.910156 92.363281 17.925781 93.148438 17.617188 C 93.675781 17.410156 94.160156 17.558594 94.578125 17.929688 C 95.042969 18.335938 95.402344 18.824219 95.691406 19.367188 C 95.722656 19.421875 95.742188 19.480469 95.765625 19.539062 C 95.957031 20.03125 95.871094 20.402344 95.519531 20.617188 C 95.117188 20.859375 94.609375 20.78125 94.289062 20.414062 C 94.214844 20.335938 94.15625 20.242188 94.058594 20.109375 C 93.914062 20.261719 93.773438 20.398438 93.644531 20.546875 C 93.371094 20.859375 93.054688 21.101562 92.660156 21.238281 C 92.550781 21.277344 92.414062 21.351562 92.378906 21.445312 C 92.191406 21.910156 91.835938 22.0625 91.375 22.0625 C 91.347656 22.0625 91.320312 22.085938 91.269531 22.109375 C 91.320312 22.21875 91.371094 22.324219 91.421875 22.433594 C 91.667969 22.996094 91.539062 23.515625 91.050781 23.894531 C 90.964844 23.960938 90.871094 24.027344 90.769531 24.066406 C 90.351562 24.21875 90.074219 24.507812 89.867188 24.898438 C 89.660156 25.28125 89.296875 25.460938 88.882812 25.550781 C 88.488281 25.632812 88.089844 25.714844 87.695312 25.796875 C 87.316406 25.878906 86.953125 25.816406 86.589844 25.714844 C 86.304688 25.632812 86.015625 25.550781 85.722656 25.53125 C 85.257812 25.5 85.078125 25.691406 85.0625 26.164062 C 85.054688 26.335938 85.070312 26.511719 85.039062 26.679688 C 84.96875 27.050781 84.695312 27.160156 84.382812 26.953125 C 84.28125 26.886719 84.191406 26.800781 84.054688 26.691406 C 84.039062 26.855469 84.03125 26.972656 84.015625 27.085938 C 83.949219 27.542969 83.738281 27.914062 83.359375 28.179688 C 83.121094 28.351562 82.875 28.519531 82.628906 28.6875 C 82.109375 29.042969 81.9375 29.546875 82 30.15625 C 82.058594 30.714844 82.144531 31.273438 82.15625 31.835938 C 82.175781 32.71875 81.710938 33.285156 80.832031 33.433594 C 80.027344 33.574219 79.410156 33.957031 78.980469 34.652344 C 78.890625 34.796875 78.785156 34.933594 78.679688 35.066406 C 78.332031 35.511719 77.878906 35.746094 77.316406 35.789062 C 77.066406 35.804688 76.820312 35.839844 76.574219 35.878906 C 76.234375 35.929688 75.992188 36.109375 75.898438 36.445312 C 75.6875 37.195312 75.332031 37.859375 74.8125 38.445312 C 74.574219 38.71875 74.488281 39.0625 74.558594 39.414062 C 74.71875 40.199219 74.65625 40.960938 74.410156 41.722656 C 74.347656 41.910156 74.351562 42.125 74.351562 42.328125 C 74.351562 43.089844 74.117188 43.769531 73.664062 44.378906 C 73.515625 44.578125 73.371094 44.785156 73.226562 44.988281 C 73.0625 45.214844 73.039062 45.445312 73.1875 45.6875 C 73.386719 46.023438 73.605469 46.347656 73.785156 46.691406 C 74.089844 47.289062 74.390625 47.890625 74.65625 48.503906 C 74.875 49.003906 75.050781 49.523438 75.238281 50.035156 C 75.539062 50.863281 76.074219 51.5 76.824219 51.9375 C 77.335938 52.238281 77.863281 52.507812 78.394531 52.769531 C 79.335938 53.230469 80.152344 53.847656 80.816406 54.652344 C 81.023438 54.902344 81.191406 55.195312 81.324219 55.488281 C 81.507812 55.910156 81.449219 56.339844 81.113281 56.660156 C 80.84375 56.914062 80.828125 57.152344 81.003906 57.441406 C 81.222656 57.800781 81.445312 58.15625 81.679688 58.507812 C 81.890625 58.816406 82.148438 59.097656 82.335938 59.417969 C 82.96875 60.5 83.832031 61.375 84.75 62.207031 C 84.980469 62.414062 85.238281 62.597656 85.496094 62.769531 C 86.398438 63.359375 87.113281 64.085938 87.398438 65.171875 C 87.535156 65.699219 87.835938 66.136719 88.238281 66.5 C 88.597656 66.824219 88.964844 67.140625 89.328125 67.460938 C 89.492188 67.601562 89.675781 67.730469 89.820312 67.890625 C 90.511719 68.660156 91.367188 69.1875 92.273438 69.664062 C 92.738281 69.910156 93.167969 70.230469 93.605469 70.527344 C 93.757812 70.632812 93.890625 70.773438 94.019531 70.910156 C 94.519531 71.433594 94.480469 71.71875 93.871094 72.113281 C 94.066406 72.074219 94.261719 72.027344 94.457031 71.996094 C 94.78125 71.949219 95.105469 71.867188 95.425781 71.886719 C 95.949219 71.921875 96.15625 72.171875 96.203125 72.699219 C 96.210938 72.761719 96.214844 72.824219 96.230469 72.953125 C 96.390625 72.953125 96.558594 72.949219 96.722656 72.953125 C 97.242188 72.964844 97.394531 73.105469 97.46875 73.644531 C 97.496094 73.644531 97.527344 73.652344 97.554688 73.644531 C 98.246094 73.445312 98.621094 73.796875 98.449219 74.496094 C 98.40625 74.660156 98.34375 74.824219 98.265625 74.976562 C 98.089844 75.304688 98.222656 75.539062 98.460938 75.761719 C 98.777344 76.058594 99.121094 76.339844 99.394531 76.679688 C 99.730469 77.101562 100.058594 77.550781 100.300781 78.035156 C 100.992188 79.4375 102.039062 80.46875 103.414062 81.167969 C 104.261719 81.601562 104.605469 82.304688 104.636719 83.222656 C 104.664062 83.953125 104.695312 84.691406 104.785156 85.417969 C 104.875 86.136719 105.152344 86.8125 105.515625 87.433594 C 106.109375 88.449219 106.402344 89.550781 106.59375 90.703125 C 106.707031 91.390625 106.898438 92.074219 107.121094 92.738281 C 107.445312 93.714844 107.777344 94.6875 107.882812 95.726562 C 107.898438 95.890625 107.980469 96.050781 108.046875 96.207031 C 108.109375 96.347656 108.199219 96.480469 108.253906 96.625 C 108.496094 97.308594 108.347656 97.65625 107.691406 97.972656 C 107.652344 97.992188 107.617188 98.027344 107.566406 98.0625 C 107.5 98.351562 107.621094 98.605469 107.746094 98.855469 C 107.878906 99.121094 108.0625 99.359375 108.179688 99.632812 C 108.3125 99.929688 108.445312 100.238281 108.488281 100.554688 C 108.578125 101.179688 108.214844 101.457031 107.617188 101.273438 C 107.574219 101.261719 107.53125 101.257812 107.421875 101.234375 C 107.5 101.359375 107.542969 101.449219 107.605469 101.519531 C 107.917969 101.871094 108.105469 102.273438 108.128906 102.746094 C 108.160156 103.363281 108.421875 103.886719 108.765625 104.382812 C 108.949219 104.652344 109.152344 104.914062 109.316406 105.195312 C 109.695312 105.835938 109.613281 106.375 109.078125 106.878906 C 108.734375 107.199219 108.371094 107.496094 108.042969 107.828125 C 107.550781 108.328125 107.527344 108.539062 107.832031 109.164062 C 107.988281 109.488281 108.164062 109.800781 108.308594 110.128906 C 108.445312 110.433594 108.515625 110.753906 108.425781 111.089844 C 108.292969 111.589844 108.003906 111.773438 107.492188 111.6875 C 107.433594 111.679688 107.375 111.675781 107.300781 111.664062 C 107.355469 112.015625 107.457031 112.273438 107.785156 112.460938 C 108.246094 112.726562 108.246094 113.238281 107.839844 113.597656 C 107.757812 113.667969 107.671875 113.734375 107.585938 113.800781 C 107.683594 114.1875 107.8125 114.554688 107.859375 114.933594 C 107.894531 115.253906 107.878906 115.59375 107.808594 115.90625 C 107.675781 116.453125 107.308594 116.578125 106.824219 116.289062 C 106.746094 116.242188 106.667969 116.203125 106.535156 116.21875 C 106.625 116.328125 106.707031 116.445312 106.8125 116.539062 C 107.253906 116.941406 107.300781 117.429688 107.128906 117.957031 C 107.046875 118.207031 106.917969 118.445312 106.792969 118.679688 C 106.578125 119.0625 106.3125 119.386719 105.859375 119.3125 C 105.761719 119.753906 105.695312 120.167969 105.578125 120.566406 C 105.390625 121.214844 104.925781 121.578125 104.273438 121.695312 C 104 121.746094 103.71875 121.753906 103.4375 121.769531 C 103.167969 121.789062 102.96875 121.890625 102.855469 122.160156 C 102.617188 122.714844 102.175781 122.996094 101.582031 123.042969 C 101.472656 123.054688 101.363281 123.074219 101.253906 123.078125 C 100.921875 123.09375 100.667969 123.234375 100.484375 123.527344 C 100.351562 123.734375 100.183594 123.929688 100.007812 124.101562 C 99.730469 124.371094 99.402344 124.550781 99 124.515625 C 98.761719 124.496094 98.582031 124.574219 98.429688 124.757812 C 98.078125 125.183594 97.597656 125.40625 97.082031 125.554688 C 96.796875 125.636719 96.511719 125.722656 96.234375 125.816406 C 96.007812 125.894531 95.898438 126.042969 95.875 126.300781 C 95.796875 127.144531 95.511719 127.429688 94.6875 127.523438 C 94.347656 127.5625 94.0625 127.664062 93.84375 127.953125 C 93.570312 128.3125 93.171875 128.460938 92.730469 128.457031 C 92.226562 128.449219 91.851562 128.621094 91.527344 129.03125 C 91.054688 129.628906 90.402344 129.960938 89.648438 130.074219 C 89.371094 130.117188 89.179688 130.226562 89.015625 130.476562 C 88.644531 131.039062 88.15625 131.078125 87.5 130.628906 C 87.394531 130.722656 87.289062 130.839844 87.164062 130.921875 C 86.914062 131.082031 86.667969 131.261719 86.398438 131.359375 C 85.914062 131.527344 85.613281 131.285156 85.605469 130.773438 C 85.605469 130.710938 85.605469 130.652344 85.605469 130.578125 C 84.921875 131.089844 84.921875 131.089844 83.953125 130.386719 C 84.082031 130.875 84.03125 131.3125 83.816406 131.730469 C 83.785156 131.792969 83.777344 131.878906 83.78125 131.953125 C 83.800781 132.324219 83.835938 132.695312 83.84375 133.066406 C 83.851562 133.410156 83.6875 133.691406 83.367188 133.800781 C 83.0625 133.898438 82.863281 134.09375 82.664062 134.34375 C 83.132812 134.738281 83.105469 135.226562 82.890625 135.738281 C 82.652344 136.304688 82.132812 136.367188 81.605469 136.398438 C 81.578125 136.4375 81.554688 136.476562 81.527344 136.515625 C 81.625 136.570312 81.742188 136.601562 81.8125 136.675781 C 82.234375 137.117188 82.261719 137.5625 81.910156 138.070312 C 81.410156 138.796875 80.292969 139.351562 79.265625 138.902344 C 79.179688 138.863281 79.09375 138.835938 78.976562 138.792969 C 78.929688 138.871094 78.875 138.941406 78.839844 139.019531 C 78.234375 140.503906 77.09375 141.324219 75.578125 141.703125 C 74.792969 141.898438 74.011719 142.113281 73.246094 142.371094 C 72.621094 142.578125 72.054688 142.917969 71.539062 143.332031 C 71.113281 143.667969 70.789062 144.082031 70.589844 144.589844 C 69.730469 146.769531 68.042969 147.898438 65.832031 148.355469 C 65.453125 148.433594 65.058594 148.449219 64.671875 148.496094 C 64.640625 148.5 64.609375 148.507812 64.578125 148.503906 C 64.210938 148.453125 63.800781 148.457031 63.636719 148.027344 C 63.488281 147.632812 63.765625 147.386719 64.003906 147.136719 C 64.222656 146.914062 64.441406 146.691406 64.660156 146.464844 C 64.648438 146.453125 64.632812 146.425781 64.613281 146.425781 C 63.898438 146.382812 63.761719 146.230469 63.941406 145.558594 C 64.324219 144.105469 64.382812 142.625 64.390625 141.136719 C 64.394531 140.121094 64.367188 139.105469 64.628906 138.105469 C 64.703125 137.824219 64.683594 137.515625 64.707031 137.21875 C 64.75 136.714844 64.953125 136.289062 65.324219 135.941406 C 65.449219 135.824219 65.582031 135.707031 65.667969 135.5625 C 65.984375 135.023438 66.421875 134.65625 67.109375 134.4375 C 66.964844 134.324219 66.792969 134.230469 66.671875 134.09375 C 66.421875 133.800781 66.175781 133.679688 65.78125 133.863281 C 65.390625 134.042969 65.144531 133.902344 64.96875 133.496094 C 64.882812 133.292969 64.824219 133.078125 64.726562 132.886719 C 64.535156 132.519531 64.246094 132.460938 63.917969 132.707031 C 63.757812 132.828125 63.621094 132.980469 63.453125 133.097656 C 63.289062 133.210938 63.113281 133.320312 62.925781 133.378906 C 62.582031 133.488281 62.296875 133.351562 62.183594 133.003906 C 62.105469 132.753906 62.066406 132.484375 62.066406 132.222656 C 62.0625 131.832031 61.929688 131.523438 61.621094 131.289062 C 61.507812 131.203125 61.40625 131.101562 61.3125 131 C 60.992188 130.660156 60.917969 130.246094 61.214844 129.898438 C 61.605469 129.4375 62.050781 129.015625 62.503906 128.613281 C 62.761719 128.386719 63.105469 128.375 63.4375 128.507812 C 63.667969 128.601562 63.894531 128.710938 64.128906 128.789062 C 64.625 128.960938 65.011719 128.867188 65.34375 128.472656 C 65.601562 128.164062 65.914062 127.898438 66.226562 127.640625 C 66.679688 127.269531 66.746094 127.074219 66.53125 126.507812 C 66.480469 126.378906 66.421875 126.25 66.382812 126.113281 C 66.128906 125.273438 66.746094 124.542969 67.613281 124.6875 C 67.898438 124.738281 68.171875 124.875 68.441406 124.988281 C 68.742188 125.117188 69.03125 125.277344 69.332031 125.398438 C 69.550781 125.484375 69.734375 125.460938 69.898438 125.234375 C 70.351562 124.613281 70.804688 124.480469 71.53125 124.703125 C 71.605469 124.726562 71.679688 124.75 71.75 124.789062 C 72.101562 124.976562 72.363281 124.867188 72.605469 124.574219 C 72.75 124.394531 72.921875 124.226562 73.109375 124.089844 C 73.734375 123.644531 74.417969 123.804688 74.757812 124.488281 C 74.886719 124.75 74.941406 125.046875 75.03125 125.332031 C 75.070312 125.457031 75.105469 125.585938 75.15625 125.75 C 75.269531 125.675781 75.332031 125.632812 75.394531 125.59375 C 75.8125 125.335938 76.128906 125.355469 76.511719 125.65625 C 76.703125 125.808594 76.890625 125.964844 77.121094 126.105469 C 76.976562 125.523438 77.15625 125.046875 77.441406 124.578125 C 77.679688 124.183594 77.632812 124.105469 77.210938 123.925781 C 76.753906 123.734375 76.277344 123.566406 75.855469 123.308594 C 74.941406 122.757812 74.535156 121.886719 74.472656 120.839844 C 74.457031 120.621094 74.488281 120.398438 74.460938 120.183594 C 74.421875 119.910156 74.355469 119.640625 74.289062 119.371094 C 74.226562 119.128906 74.113281 118.898438 74.085938 118.65625 C 74.027344 118.082031 74.355469 117.726562 74.921875 117.710938 C 74.953125 117.710938 74.984375 117.710938 75.015625 117.710938 C 75.519531 117.714844 75.519531 117.714844 75.679688 117.222656 C 75.871094 116.644531 76.363281 116.382812 76.929688 116.59375 C 77.160156 116.679688 77.382812 116.808594 77.582031 116.953125 C 77.960938 117.242188 78.378906 117.359375 78.851562 117.324219 C 79.066406 117.308594 79.285156 117.320312 79.542969 117.320312 C 79.453125 116.902344 79.519531 116.511719 79.761719 116.140625 C 79.839844 116.023438 79.792969 115.808594 79.765625 115.644531 C 79.667969 114.984375 79.960938 114.621094 80.621094 114.597656 C 80.824219 114.589844 81.035156 114.613281 81.222656 114.554688 C 81.726562 114.386719 82.171875 114.417969 82.554688 114.871094 C 82.660156 114.757812 82.75 114.675781 82.820312 114.582031 C 83.214844 114.070312 83.738281 113.761719 84.367188 113.710938 C 85.21875 113.648438 85.855469 113.25 86.425781 112.640625 C 86.816406 112.222656 87.277344 111.867188 87.742188 111.523438 C 88.167969 111.210938 88.660156 111.175781 89.171875 111.335938 C 89.488281 111.4375 89.707031 111.640625 89.914062 111.949219 C 90 111.847656 90.085938 111.765625 90.144531 111.667969 C 90.414062 111.222656 90.589844 110.738281 90.667969 110.222656 C 90.878906 108.828125 90.847656 107.445312 90.394531 106.097656 C 90.070312 105.148438 90.175781 104.261719 90.640625 103.382812 C 90.917969 102.859375 91.15625 102.3125 91.332031 101.75 C 91.53125 101.109375 91.398438 100.476562 91.042969 99.90625 C 90.773438 99.472656 90.585938 99.019531 90.570312 98.5 C 90.5625 98.285156 90.464844 98.117188 90.285156 97.992188 C 90.144531 97.894531 90.007812 97.785156 89.886719 97.667969 C 89.636719 97.425781 89.527344 97.148438 89.734375 96.828125 C 89.886719 96.589844 89.8125 96.386719 89.671875 96.179688 C 89.484375 95.890625 89.296875 95.601562 89.128906 95.304688 C 88.753906 94.636719 88.695312 93.933594 88.984375 93.226562 C 89.222656 92.632812 89.507812 92.058594 89.765625 91.472656 C 89.925781 91.101562 90.070312 90.71875 90.21875 90.34375 C 90.359375 89.988281 90.445312 89.640625 90.289062 89.253906 C 90.234375 89.117188 90.3125 88.925781 90.328125 88.757812 C 90.347656 88.542969 90.421875 88.316406 90.375 88.121094 C 90.261719 87.628906 90.34375 87.222656 90.746094 86.898438 C 90.777344 86.875 90.792969 86.828125 90.832031 86.765625 C 90.71875 86.660156 90.601562 86.558594 90.5 86.445312 C 90.355469 86.28125 90.195312 86.125 90.085938 85.941406 C 89.75 85.382812 89.902344 84.890625 90.511719 84.660156 C 90.839844 84.539062 91.011719 84.328125 91.128906 84.019531 C 91.238281 83.726562 91.386719 83.453125 91.53125 83.175781 C 91.792969 82.671875 91.78125 82.5 91.371094 82.101562 C 91.117188 81.851562 90.835938 81.621094 90.550781 81.40625 C 89.71875 80.78125 88.980469 80.074219 88.425781 79.183594 C 88.261719 78.921875 88.042969 78.691406 87.855469 78.441406 C 87.464844 77.933594 87.449219 77.464844 87.90625 77.011719 C 88.292969 76.632812 88.757812 76.332031 89.1875 75.996094 C 89.394531 75.835938 89.640625 75.710938 89.652344 75.359375 C 89.539062 75.34375 89.4375 75.316406 89.339844 75.324219 C 88.820312 75.363281 88.40625 75.152344 88.039062 74.800781 C 87.882812 74.648438 87.710938 74.503906 87.523438 74.398438 C 87.078125 74.15625 86.847656 73.773438 86.738281 73.292969 C 86.539062 72.453125 86.539062 72.429688 85.707031 72.386719 C 84.882812 72.34375 84.582031 71.832031 84.488281 71.257812 C 84.457031 71.042969 84.4375 70.828125 84.402344 70.542969 C 84.296875 70.667969 84.234375 70.765625 84.152344 70.839844 C 83.933594 71.03125 83.730469 71.265625 83.476562 71.398438 C 83 71.648438 82.457031 71.421875 82.398438 70.894531 C 82.328125 70.285156 82.050781 69.90625 81.554688 69.59375 C 81.191406 69.363281 81.054688 68.960938 81.0625 68.53125 C 81.070312 68.078125 81.113281 67.628906 81.136719 67.175781 C 81.144531 67.019531 81.152344 66.863281 81.148438 66.707031 C 81.136719 66.355469 80.984375 66.117188 80.628906 66.023438 C 80.007812 65.855469 79.664062 65.429688 79.515625 64.816406 C 79.453125 64.558594 79.363281 64.308594 79.257812 64.0625 C 79.074219 63.628906 78.761719 63.277344 78.324219 63.125 C 77.394531 62.808594 76.667969 62.246094 76.023438 61.511719 C 75.035156 60.382812 73.992188 59.304688 72.976562 58.199219 C 72.476562 57.65625 72.183594 57.027344 72.117188 56.273438 C 72.03125 55.335938 71.464844 54.605469 70.988281 53.804688 C 70.828125 53.871094 70.707031 53.929688 70.578125 53.976562 C 70.046875 54.164062 69.625 54.011719 69.449219 53.476562 C 69.289062 52.996094 68.972656 52.757812 68.542969 52.546875 C 68.175781 52.363281 67.820312 52.109375 67.53125 51.8125 C 67.03125 51.292969 66.945312 50.65625 67.222656 49.988281 C 67.3125 49.769531 67.433594 49.570312 67.542969 49.363281 C 67.6875 49.085938 67.691406 49.03125 67.597656 48.609375 C 66.90625 48.691406 66.355469 48.375 65.820312 47.964844 C 65.625 47.816406 65.332031 47.722656 65.085938 47.722656 C 63.910156 47.730469 63.101562 47.089844 62.371094 46.277344 C 62.289062 46.1875 62.207031 46.089844 62.132812 45.988281 C 62.003906 45.808594 61.839844 45.726562 61.613281 45.742188 C 61.226562 45.769531 60.949219 45.589844 60.789062 45.246094 C 60.648438 44.953125 60.4375 44.785156 60.117188 44.734375 C 59.453125 44.625 58.988281 44.296875 58.878906 43.585938 C 58.847656 43.359375 58.703125 43.277344 58.488281 43.265625 C 58.101562 43.246094 57.710938 43.21875 57.324219 43.191406 C 56.75 43.152344 56.21875 42.992188 55.78125 42.597656 C 55.652344 42.484375 55.535156 42.355469 55.4375 42.214844 C 55.167969 41.8125 55.265625 41.464844 55.703125 41.257812 C 55.984375 41.121094 56.28125 41.019531 56.550781 40.871094 C 57.199219 40.507812 57.367188 39.945312 57.066406 39.25 C 56.992188 39.078125 56.898438 38.910156 56.859375 38.730469 C 56.753906 38.226562 57.03125 37.867188 57.535156 37.914062 C 58.160156 37.972656 58.742188 37.855469 59.320312 37.644531 C 59.988281 37.402344 60.585938 37.539062 61.066406 38.0625 C 61.359375 38.378906 61.675781 38.515625 62.109375 38.421875 C 62.316406 38.375 62.542969 38.414062 62.792969 38.414062 C 62.9375 37.449219 63.847656 37.21875 64.464844 36.679688 C 64.421875 36.609375 64.390625 36.558594 64.359375 36.507812 C 64.109375 36.125 64.117188 35.855469 64.441406 35.546875 C 64.652344 35.347656 64.914062 35.195312 65.15625 35.027344 C 65.398438 34.859375 65.683594 34.746094 65.707031 34.382812 C 65.734375 33.957031 65.542969 33.625 65.28125 33.328125 C 65.214844 33.257812 65.054688 33.246094 64.9375 33.253906 C 64.785156 33.265625 64.636719 33.328125 64.484375 33.355469 C 63.777344 33.496094 63.253906 33.179688 63.054688 32.484375 C 62.996094 32.292969 62.976562 32.085938 62.945312 31.886719 C 62.859375 31.40625 62.78125 31.335938 62.300781 31.347656 C 62.003906 31.355469 61.703125 31.40625 61.414062 31.367188 C 61.046875 31.316406 60.667969 31.25 60.339844 31.09375 C 59.777344 30.824219 59.765625 30.25 60.289062 29.914062 C 60.589844 29.71875 60.925781 29.578125 61.230469 29.390625 C 61.523438 29.214844 61.808594 29.023438 62.070312 28.800781 C 62.210938 28.683594 62.292969 28.488281 62.433594 28.28125 C 62.132812 28.085938 61.902344 27.898438 61.640625 27.769531 C 60.78125 27.347656 59.980469 26.84375 59.28125 26.179688 C 58.714844 25.640625 58.050781 25.53125 57.328125 25.773438 C 56.769531 25.960938 56.222656 26.191406 55.667969 26.394531 C 55.359375 26.503906 55.230469 26.726562 55.214844 27.035156 C 55.203125 27.222656 55.222656 27.414062 55.191406 27.59375 C 55.152344 27.820312 55.109375 28.0625 55.003906 28.261719 C 54.8125 28.636719 54.40625 28.773438 54.003906 28.648438 C 53.914062 28.621094 53.8125 28.59375 53.75 28.535156 C 53.265625 28.074219 52.636719 27.859375 52.0625 27.554688 C 51.738281 27.378906 51.417969 27.171875 51.058594 27.550781 C 50.964844 27.652344 50.707031 27.625 50.53125 27.601562 C 50.398438 27.589844 50.273438 27.496094 50.152344 27.433594 C 49.625 27.15625 49.109375 26.867188 48.582031 26.597656 C 48.058594 26.332031 47.664062 25.945312 47.457031 25.394531 C 47.226562 24.777344 46.835938 24.289062 46.363281 23.839844 C 46.035156 23.527344 45.722656 23.195312 45.460938 22.828125 C 45.027344 22.214844 45.046875 21.707031 45.5 21.105469 C 45.6875 20.859375 45.773438 20.660156 45.585938 20.355469 C 45.386719 20.027344 45.59375 19.753906 45.855469 19.546875 C 46.273438 19.21875 46.472656 18.777344 46.5625 18.265625 C 46.574219 18.195312 46.5625 18.117188 46.5625 18.070312 C 46.253906 17.957031 45.96875 17.851562 45.65625 17.734375 C 45.609375 17.8125 45.539062 17.929688 45.464844 18.042969 C 44.992188 18.761719 44.203125 18.75 43.773438 18.003906 C 43.628906 17.753906 43.550781 17.457031 43.476562 17.171875 C 43.394531 16.855469 43.34375 16.53125 43.296875 16.203125 C 43.25 15.847656 43.109375 15.582031 42.742188 15.476562 C 42.683594 15.460938 42.628906 15.421875 42.574219 15.394531 C 42.261719 15.238281 42.050781 15.003906 42.019531 14.640625 C 41.964844 14.042969 41.601562 13.683594 41.101562 13.433594 C 40.890625 13.328125 40.671875 13.246094 40.457031 13.148438 C 40.132812 13.003906 39.898438 12.773438 39.726562 12.457031 C 39.535156 12.101562 39.304688 11.765625 39.089844 11.421875 C 39 11.273438 38.894531 11.132812 38.828125 10.976562 C 38.65625 10.578125 38.773438 10.273438 39.125 10.007812 C 39.371094 9.824219 39.613281 9.617188 39.800781 9.375 C 40.328125 8.699219 40.8125 7.984375 41.347656 7.3125 C 41.59375 6.996094 41.890625 6.703125 42.210938 6.460938 C 42.824219 6 43.484375 6.054688 44.023438 6.605469 C 44.4375 7.03125 44.914062 7.324219 45.46875 7.523438 C 45.6875 7.601562 45.898438 7.707031 46.105469 7.816406 C 46.433594 7.992188 46.65625 8.261719 46.777344 8.621094 C 46.984375 9.238281 47.5 9.382812 48 8.960938 C 48.175781 8.8125 48.324219 8.617188 48.445312 8.421875 C 48.683594 8.035156 48.894531 7.632812 49.117188 7.238281 C 49.332031 6.855469 49.578125 6.488281 49.964844 6.257812 C 50.1875 6.121094 50.4375 6.011719 50.691406 5.964844 C 51.273438 5.855469 51.699219 6.117188 51.898438 6.679688 C 52.015625 7 52.097656 7.332031 52.222656 7.757812 C 52.316406 7.480469 52.375 7.296875 52.4375 7.117188 C 52.808594 6.085938 53.855469 5.820312 54.632812 6.582031 C 54.894531 6.839844 55.058594 7.195312 55.265625 7.503906 C 55.480469 7.824219 55.683594 8.15625 55.914062 8.46875 C 56.027344 8.621094 56.195312 8.714844 56.460938 8.625 C 56.460938 8.445312 56.484375 8.25 56.457031 8.058594 C 56.285156 6.699219 57.152344 5.84375 58.289062 5.671875 C 58.902344 5.582031 59.425781 5.769531 59.886719 6.171875 C 60.070312 6.335938 60.253906 6.5 60.46875 6.691406 C 60.605469 6.550781 60.734375 6.4375 60.832031 6.304688 C 61.164062 5.863281 61.59375 5.628906 62.144531 5.601562 C 62.316406 5.59375 62.488281 5.5625 62.65625 5.542969 C 63.183594 5.480469 63.652344 5.300781 64.019531 4.894531 C 64.1875 4.707031 64.378906 4.546875 64.550781 4.363281 C 64.8125 4.082031 64.824219 3.933594 64.621094 3.621094 C 64.585938 3.566406 64.542969 3.519531 64.507812 3.46875 C 64.148438 2.9375 64.203125 2.484375 64.699219 2.066406 C 65.1875 1.648438 65.769531 1.425781 66.398438 1.339844 C 67.265625 1.214844 68.050781 0.9375 68.707031 0.3125 C 69.128906 -0.0859375 69.640625 -0.0703125 70.144531 0.179688 C 70.914062 0.558594 71.46875 1.144531 71.832031 1.929688 C 71.972656 2.238281 72.132812 2.5625 72.367188 2.792969 C 72.628906 3.042969 72.96875 3.242188 73.308594 3.375 C 73.761719 3.550781 74.207031 3.730469 74.566406 4.070312 C 74.84375 4.332031 75.160156 4.386719 75.515625 4.253906 C 75.765625 4.160156 76.023438 4.09375 76.269531 4.003906 C 77.160156 3.667969 78.191406 3.84375 78.820312 4.707031 C 79.097656 5.085938 79.265625 5.105469 79.714844 4.941406 C 80.035156 4.824219 80.347656 4.675781 80.675781 4.585938 C 81.691406 4.3125 82.621094 4.527344 83.464844 5.140625 C 83.785156 5.375 84.027344 5.683594 84.164062 6.0625 C 84.351562 6.558594 84.269531 6.953125 83.847656 7.269531 C 83.542969 7.5 83.332031 7.710938 83.414062 8.152344 C 83.476562 8.5 83.257812 8.78125 82.925781 8.925781 C 82.738281 9.003906 82.542969 9.070312 82.34375 9.105469 C 82.050781 9.160156 81.882812 9.34375 81.894531 9.617188 C 81.929688 10.34375 81.914062 11.089844 82.550781 11.636719 C 83.074219 12.085938 83.21875 12.710938 83.242188 13.371094 C 83.25 13.585938 83.242188 13.804688 83.242188 14.085938 " fill-opacity="1" fill-rule="nonzero"/></g><path fill="#000000" d="M 56.878906 130.734375 C 56.523438 130.914062 56.199219 131.082031 55.875 131.25 C 56.171875 131.636719 56.457031 132.007812 56.773438 132.421875 C 56.761719 131.835938 56.976562 131.308594 56.878906 130.734375 Z M 57.738281 130.890625 C 57.699219 131.164062 57.660156 131.398438 57.636719 131.628906 C 57.570312 132.359375 57.507812 133.09375 57.441406 133.824219 C 57.429688 133.964844 57.410156 134.105469 57.375 134.238281 C 57.289062 134.554688 57.117188 134.726562 56.890625 134.738281 C 56.664062 134.753906 56.476562 134.589844 56.375 134.28125 C 56.339844 134.175781 56.324219 134.066406 56.300781 133.960938 C 56.238281 133.6875 56.179688 133.410156 56.113281 133.140625 C 56.003906 132.707031 55.777344 132.339844 55.476562 132.007812 C 55.265625 131.78125 55.0625 131.535156 54.910156 131.265625 C 54.691406 130.875 54.867188 130.535156 55.3125 130.496094 C 55.71875 130.457031 56.066406 130.316406 56.378906 130.070312 C 56.453125 130.011719 56.535156 129.964844 56.621094 129.925781 C 57.089844 129.710938 57.503906 129.882812 57.648438 130.378906 C 57.703125 130.554688 57.714844 130.742188 57.738281 130.890625 " fill-opacity="1" fill-rule="nonzero"/><g clip-path="url(#de338f5777)"><path fill="#000000" d="M 81.316406 148.125 C 80.808594 148.121094 80.546875 147.839844 80.613281 147.453125 C 80.640625 147.292969 80.710938 147.113281 80.820312 146.996094 C 81.082031 146.710938 81.375 146.449219 81.667969 146.195312 C 81.84375 146.046875 82.070312 146 82.277344 146.132812 C 82.484375 146.265625 82.453125 146.484375 82.410156 146.683594 C 82.320312 147.125 82.136719 147.519531 81.8125 147.828125 C 81.648438 147.976562 81.425781 148.0625 81.316406 148.125 " fill-opacity="1" fill-rule="nonzero"/></g></svg>