<svg xmlns="http://www.w3.org/2000/svg" xml:space="preserve" width="512px" height="512px" version="1.1" style="shape-rendering:geometricPrecision; text-rendering:geometricPrecision; image-rendering:optimizeQuality; fill-rule:evenodd; clip-rule:evenodd" viewBox="0 0 512 512" xmlns:xlink="http://www.w3.org/1999/xlink" xmlns:xodm="http://www.corel.com/coreldraw/odm/2003">
 <defs>
  <style type="text/css">
   
    .fil1 {fill:#00CCFF}
    .fil0 {fill:#1B74B9}
    .fil2 {fill:#F9F9F9}
   
  </style>
 </defs>
 <g id="Layer_x0020_1">
  <metadata id="CorelCorpID_0Corel-Layer"></metadata>
  <path class="fil0" d="M214.88 444.13c-21.31,-24.74 -31.66,-65.63 -36.97,-100.97 -35.04,-5.23 -75.54,-15.51 -100.02,-36.66 12.88,69.67 67.66,124.76 136.99,137.63zm201.12 -173.13c0,-10.5 -2.36,-23 7,-23 9.36,0 7,12.5 7,23l34 0c9.04,0 9.05,14 0,14l-12.68 0c-2.36,7.86 -7.89,22.69 -19.28,37.73 16.46,17.61 31.25,18.19 25.96,27.77 -1.86,3.37 -6.14,4.4 -9.4,2.6 -10.29,-5.75 -18.74,-12.59 -25.67,-19.75 -3.53,3.64 -22.39,20.65 -28.93,20.65 -6.89,0 -9.65,-9.61 -3.4,-13.1 9.37,-5.24 17.02,-11.56 23.24,-18.17 -11.41,-15.08 -16.93,-29.92 -19.28,-37.73 -6.32,0 -19.56,2.36 -19.56,-7 0,-3.9 3.1,-7 7,-7l34 0zm-338.06 -26.5c1.74,-1.49 3.62,-2.95 5.62,-4.38l-4.12 -3.28c-0.55,2.61 -1.05,5.16 -1.5,7.66zm-11.1 -15.5l-46.84 0c-10.8,0 -20,-9.2 -20,-20l0 -138c0,-10.8 9.2,-20 20,-20l138 0c10.8,0 20,9.2 20,20l0 32.28c96.79,-39.38 208.28,11.61 243.05,110.72l70.95 0c10.8,0 20,9.2 20,20l0 138c0,10.8 -9.2,20 -20,20l-49.6 0 -32.1 25.5c-4.4,3.58 -11.3,0.22 -11.3,-5.5l0 -20 -8.6 0c-34.74,43.83 -87.17,69 -144.4,69 -102,0 -185,-83.4 -185,-186 0,-13.87 1.95,-28.96 5.84,-46zm111.16 -110.54l0 88.36c5.4,-35.32 15.53,-75.09 36.87,-99.92 -12.63,2.39 -24.95,6.25 -36.87,11.56zm99.49 -11.59c21.22,24.56 31.5,65.19 36.71,100.35 12.2,1.94 23.95,4.4 35.09,7.37 1.52,-0.38 3.09,-0.59 4.71,-0.59l52.11 0c-21.45,-56.26 -70.38,-96.38 -128.62,-107.13zm94.61 285.13l-18.1 0c-10.8,0 -20,-9.2 -20,-20l0 -32.1c-6.29,1.38 -12.9,2.59 -19.83,3.61 -5.16,34.95 -15.71,76.43 -36.74,100.7 36.67,-6.6 69.75,-24.73 94.67,-52.21zm37.18 -107c2.33,6.6 6.56,16.38 13.68,26.54 7.16,-10.15 11.39,-19.92 13.71,-26.54l-27.39 0zm-55.66 -56.99c-2.48,1.46 -5.62,1.32 -5.62,5.99l0 138c0,3.1 2.9,6 6,6l52 0c9.36,0 7,13.28 7,19.5l22.6 -18c1.2,-1 2.8,-1.5 4.4,-1.5l52 0c3.1,0 6,-2.9 6,-6l0 -138c0,-3.1 -2.9,-6 -6,-6 -12.31,0 -130.16,-0.6 -138.38,0.01zm-17.7 -2.38c-6.43,-1.49 -13.05,-2.8 -19.83,-3.95 3.84,34.15 3.8,73.33 -0.05,107.45 6.28,-1.02 12.27,-2.19 17.96,-3.52l0 -91.61c0,-2.96 0.69,-5.81 1.92,-8.37zm-240.86 23.65c-53.67,34.73 10.5,68.35 80.96,79.58 -3.92,-34.08 -3.97,-72.82 -0.04,-106.92 -1.17,0.19 -2.3,0.37 -3.4,0.56 -3.69,3.97 -8.91,6.5 -14.58,6.5l-45 0 0 20c0,5.8 -6.9,9.02 -11.4,5.5l-6.54 -5.22zm-75.06 -184.28c-3.1,0 -6,2.9 -6,6l0 138c0,3.1 2.9,6 6,6l52 0c1.6,0 3.1,0.5 4.4,1.5l22.6 18c0,-6.22 -2.36,-19.5 7,-19.5l52 0c3.1,0 6,-2.9 6,-6l0 -138c0,-3.1 -2.9,-6 -6,-6l-138 0zm87.06 94l-36.12 0 -11.44 28.6c-3.41,8.44 -16.36,3.32 -13,-5.2 5.75,-14.58 35.17,-90.01 37.58,-92.39 3.48,-3.45 9.6,-2.22 11.42,2.39l36 90c3.36,8.52 -9.59,13.64 -13,5.2l-11.44 -28.6zm-30.52 -14l24.92 0 -12.46 -31.15 -12.46 31.15zm169.46 203c-18.46,0 -36.49,-1.01 -53.64,-2.95 10.09,62.4 32.76,101.95 53.64,101.95 21.37,0 43.86,-38.84 53.78,-101.65 -16.44,1.76 -34.41,2.65 -53.78,2.65zm-55.66 -17.15c33.26,4.04 78.42,4.16 111.41,0.28 4.06,-33.66 4.1,-77.89 0.04,-111.59 -35.78,-4.67 -77.02,-4.21 -111.5,0.32 -4.17,33.72 -4.13,77.31 0.05,110.99zm2 -125.37c33.08,-4.08 73.24,-4.45 107.46,-0.28 -9.91,-62.52 -32.42,-101.2 -53.8,-101.2 -20.89,0 -43.58,39.37 -53.66,101.48z" id="id_105" style="fill: rgb(255, 255, 255);"></path>
  <path class="fil1" d="M316.09 221.68c3.84,34.15 3.8,73.33 -0.05,107.45 6.28,-1.02 12.27,-2.19 17.96,-3.52l0 -91.61c0,-2.96 0.69,-5.81 1.92,-8.37 -6.43,-1.49 -13.05,-2.8 -19.83,-3.95z" id="id_106" style="fill: rgb(0, 0, 0);"></path>
  <path class="fil1" d="M301.75 331.13c4.06,-33.66 4.1,-77.89 0.04,-111.59 -35.78,-4.67 -77.02,-4.21 -111.5,0.32 -4.17,33.72 -4.13,77.31 0.05,110.99 33.26,4.04 78.42,4.16 111.41,0.28z" id="id_107" style="fill: rgb(0, 0, 0);"></path>
  <path class="fil1" d="M192.34 205.48c33.08,-4.08 73.24,-4.45 107.46,-0.28 -9.91,-62.52 -32.42,-101.2 -53.8,-101.2 -20.89,0 -43.58,39.37 -53.66,101.48z" id="id_108" style="fill: rgb(0, 0, 0);"></path>
  <path class="fil1" d="M178 206.82c5.4,-35.32 15.53,-75.09 36.87,-99.92 -12.63,2.39 -24.95,6.25 -36.87,11.56l0 88.36z" id="id_109" style="fill: rgb(0, 0, 0);"></path>
  <path class="fil1" d="M277.49 106.87c21.22,24.56 31.5,65.19 36.71,100.35 12.2,1.94 23.95,4.4 35.09,7.37 1.52,-0.38 3.09,-0.59 4.71,-0.59l52.11 0c-21.45,-56.26 -70.38,-96.38 -128.62,-107.13z" id="id_110" style="fill: rgb(0, 0, 0);"></path>
  <path class="fil1" d="M176.02 328.86c-3.92,-34.08 -3.97,-72.82 -0.04,-106.92l-3.4 0.56c-3.69,3.97 -8.91,6.5 -14.58,6.5l-45 0 0 20c0,5.8 -6.9,9.02 -11.4,5.5l-6.54 -5.22c-53.67,34.73 10.5,68.35 80.96,79.58z" id="id_111" style="fill: rgb(0, 0, 0);"></path>
  <path class="fil1" d="M77.94 244.5c1.74,-1.49 3.62,-2.95 5.62,-4.38l-4.12 -3.28c-0.55,2.61 -1.05,5.16 -1.5,7.66z" id="id_112" style="fill: rgb(0, 0, 0);"></path>
  <path class="fil1" d="M177.91 343.16c-35.04,-5.23 -75.54,-15.51 -100.02,-36.66 12.88,69.67 67.66,124.76 136.99,137.63 -21.31,-24.74 -31.66,-65.63 -36.97,-100.97z" id="id_113" style="fill: rgb(0, 0, 0);"></path>
  <path class="fil1" d="M314.17 343.51c-5.16,34.95 -15.71,76.43 -36.74,100.7 36.67,-6.6 69.75,-24.73 94.67,-52.21l-18.1 0c-10.8,0 -20,-9.2 -20,-20l0 -32.1c-6.29,1.38 -12.9,2.59 -19.83,3.61z" id="id_114" style="fill: rgb(0, 0, 0);"></path>
  <path class="fil1" d="M246 447c21.37,0 43.86,-38.84 53.78,-101.65 -16.44,1.76 -34.41,2.65 -53.78,2.65 -18.46,0 -36.49,-1.01 -53.64,-2.95 10.09,62.4 32.76,101.95 53.64,101.95z" id="id_115" style="fill: rgb(0, 0, 0);"></path>
  <path class="fil1" d="M409.28 285c2.33,6.6 6.56,16.38 13.68,26.54 7.16,-10.15 11.39,-19.92 13.71,-26.54l-27.39 0z" id="id_116" style="fill: rgb(224, 90, 71);"></path>
  <path class="fil1" d="M430 271l34 0c9.04,0 9.05,14 0,14l-12.68 0c-2.36,7.86 -7.89,22.69 -19.28,37.73 16.46,17.61 31.25,18.19 25.96,27.77 -1.86,3.37 -6.14,4.4 -9.4,2.6 -10.29,-5.75 -18.74,-12.59 -25.67,-19.75 -3.53,3.64 -22.39,20.65 -28.93,20.65 -6.89,0 -9.65,-9.61 -3.4,-13.1 9.37,-5.24 17.02,-11.56 23.24,-18.17 -11.41,-15.08 -16.93,-29.92 -19.28,-37.73 -6.32,0 -19.56,2.36 -19.56,-7 0,-3.9 3.1,-7 7,-7l34 0c0,-10.5 -2.36,-23 7,-23 9.36,0 7,12.5 7,23zm-82 -37l0 138c0,3.1 2.9,6 6,6l52 0c9.36,0 7,13.28 7,19.5l22.6 -18c1.2,-1 2.8,-1.5 4.4,-1.5l52 0c3.1,0 6,-2.9 6,-6l0 -138c0,-3.1 -2.9,-6 -6,-6 -12.31,0 -130.16,-0.6 -138.38,0.01 -2.48,1.46 -5.62,1.32 -5.62,5.99z" id="id_117" style="fill: rgb(224, 90, 71);"></path>
  <path class="fil2" d="M164 209l0 -138c0,-3.1 -2.9,-6 -6,-6l-138 0c-3.1,0 -6,2.9 -6,6l0 138c0,3.1 2.9,6 6,6l52 0c1.6,0 3.1,0.5 4.4,1.5l22.6 18c0,-6.22 -2.36,-19.5 7,-19.5l52 0c3.1,0 6,-2.9 6,-6zm-68.5 -116.6l36 90c3.36,8.52 -9.59,13.64 -13,5.2l-11.44 -28.6 -36.12 0 -11.44 28.6c-3.41,8.44 -16.36,3.32 -13,-5.2 5.75,-14.58 35.17,-90.01 37.58,-92.39 3.48,-3.45 9.6,-2.22 11.42,2.39z" id="id_118" style="fill: rgb(62, 102, 186);"></path>
  <polygon class="fil2" points="101.46,145 89,113.85 76.54,145 " id="id_119" style="fill: rgb(62, 102, 186);"></polygon>
 </g>
</svg>