<svg xmlns="http://www.w3.org/2000/svg" xmlns:xlink="http://www.w3.org/1999/xlink" width="500" zoomAndPan="magnify" viewBox="0 0 375 374.999991" height="500" preserveAspectRatio="xMidYMid meet" version="1.0"><defs><g/><clipPath id="26c2dc18ad"><path d="M 68 73 L 146 73 L 146 248 L 68 248 Z M 68 73 " clip-rule="nonzero"/></clipPath><clipPath id="92147f0d6b"><path d="M 20.4375 121.863281 L 145.085938 73.628906 L 193.640625 199.097656 L 68.992188 247.332031 Z M 20.4375 121.863281 " clip-rule="nonzero"/></clipPath><clipPath id="162f6f98c6"><path d="M 68.761719 103.164062 L 145.085938 73.628906 L 145.316406 217.796875 L 68.992188 247.332031 Z M 68.761719 103.164062 " clip-rule="nonzero"/></clipPath><clipPath id="d3742304f2"><path d="M 68 217 L 221 217 L 221 296 L 68 296 Z M 68 217 " clip-rule="nonzero"/></clipPath><clipPath id="b3a2cd8ed9"><path d="M 68.796875 246.574219 L 194.320312 198.390625 L 220.136719 265.648438 L 94.613281 313.832031 Z M 68.796875 246.574219 " clip-rule="nonzero"/></clipPath><clipPath id="22db2e2508"><path d="M 145.535156 217.117188 L 68.796875 246.574219 L 143.398438 295.105469 L 220.136719 265.648438 Z M 145.535156 217.117188 " clip-rule="nonzero"/></clipPath><clipPath id="9496a9a4fa"><path d="M 229 126 L 307 126 L 307 301 L 229 301 Z M 229 126 " clip-rule="nonzero"/></clipPath><clipPath id="aa0c37a08c"><path d="M 354.558594 251.808594 L 229.90625 300.046875 L 181.355469 174.578125 L 306.003906 126.339844 Z M 354.558594 251.808594 " clip-rule="nonzero"/></clipPath><clipPath id="055f6ea563"><path d="M 306.234375 270.507812 L 229.90625 300.046875 L 229.679688 155.875 L 306.003906 126.339844 Z M 306.234375 270.507812 " clip-rule="nonzero"/></clipPath><clipPath id="071f002e1f"><path d="M 154 77 L 307 77 L 307 156 L 154 156 Z M 154 77 " clip-rule="nonzero"/></clipPath><clipPath id="42ad237725"><path d="M 306.332031 126.5 L 180.804688 174.683594 L 154.988281 107.425781 L 280.511719 59.242188 Z M 306.332031 126.5 " clip-rule="nonzero"/></clipPath><clipPath id="a22ed6214e"><path d="M 229.589844 155.957031 L 306.332031 126.5 L 231.730469 77.96875 L 154.988281 107.425781 Z M 229.589844 155.957031 " clip-rule="nonzero"/></clipPath></defs><g clip-path="url(#26c2dc18ad)"><g clip-path="url(#92147f0d6b)"><g clip-path="url(#162f6f98c6)"><path fill="#e05a47" d="M 20.4375 121.863281 L 145.085938 73.628906 L 193.640625 199.097656 L 68.992188 247.332031 Z M 20.4375 121.863281 " fill-opacity="1" fill-rule="nonzero"/></g></g></g><g clip-path="url(#d3742304f2)"><g clip-path="url(#b3a2cd8ed9)"><g clip-path="url(#22db2e2508)"><path fill="#cf5645" d="M 68.796875 246.574219 L 194.320312 198.390625 L 220.136719 265.648438 L 94.613281 313.832031 Z M 68.796875 246.574219 " fill-opacity="1" fill-rule="nonzero"/></g></g></g><g fill="#ffffff" fill-opacity="1"><g transform="translate(85.570326, 182.441215)"><g><path d="M 27.574219 -32.871094 C 26.90625 -34.875 25.285156 -37.929688 23.855469 -40.171875 L 20.179688 -39.121094 C 21.613281 -36.785156 23.140625 -33.585938 23.710938 -31.628906 Z M 33.824219 -28.050781 C 31.441406 -21.613281 28.242188 -16.363281 23.996094 -12.070312 C 19.511719 -16.554688 16.078125 -21.992188 13.597656 -28.050781 Z M 45.324219 -28.050781 L 45.324219 -31.535156 L 2.578125 -31.535156 L 2.578125 -28.050781 L 9.921875 -28.050781 C 12.691406 -20.847656 16.460938 -14.648438 21.375 -9.589844 C 16.171875 -5.199219 9.78125 -1.957031 1.910156 0.285156 C 2.625 1.097656 3.671875 2.71875 4.101562 3.578125 C 12.023438 1.050781 18.605469 -2.386719 23.949219 -7.0625 C 29.246094 -2.289062 35.734375 1.191406 43.511719 3.386719 C 44.082031 2.386719 45.085938 0.90625 45.945312 0.09375 C 38.359375 -1.765625 31.917969 -5.152344 26.667969 -9.589844 C 31.441406 -14.503906 35.113281 -20.515625 37.832031 -28.050781 Z M 45.324219 -28.050781 "/></g></g></g><g clip-path="url(#9496a9a4fa)"><g clip-path="url(#aa0c37a08c)"><g clip-path="url(#055f6ea563)"><path fill="#325192" d="M 354.558594 251.808594 L 229.90625 300.046875 L 181.355469 174.578125 L 306.003906 126.339844 Z M 354.558594 251.808594 " fill-opacity="1" fill-rule="nonzero"/></g></g></g><g clip-path="url(#071f002e1f)"><g clip-path="url(#42ad237725)"><g clip-path="url(#a22ed6214e)"><path fill="#3e66ba" d="M 306.332031 126.5 L 180.804688 174.683594 L 154.988281 107.425781 L 280.511719 59.242188 Z M 306.332031 126.5 " fill-opacity="1" fill-rule="nonzero"/></g></g></g><g fill="#ffffff" fill-opacity="1"><g transform="translate(247.822863, 220.109503)"><g><path d="M 5.460938 0.230469 C 6.785156 0.230469 8.738281 0.171875 9.714844 0 C 10.289062 -0.113281 10.863281 -0.460938 10.863281 -1.148438 C 10.75 -3.507812 11.152344 -5.921875 11.726562 -7.761719 C 12.648438 -9.140625 14.3125 -10.117188 17.132812 -10.234375 C 18.914062 -10.289062 21.328125 -10.289062 23.109375 -10.234375 C 25.867188 -10.175781 27.707031 -9.199219 28.570312 -7.761719 C 29.144531 -5.75 29.492188 -3.449219 29.433594 -1.148438 C 29.433594 -0.460938 29.949219 -0.113281 30.46875 0 C 31.558594 0.171875 33.746094 0.230469 34.378906 0.230469 C 34.894531 0.230469 37.308594 0.171875 38.113281 0.0585938 C 39.148438 -0.0585938 39.609375 -0.691406 39.207031 -1.609375 C 35.46875 -15.292969 29.894531 -29.894531 25.121094 -39.261719 C 24.835938 -39.78125 24.316406 -40.125 23.683594 -40.242188 C 22.417969 -40.472656 21.039062 -40.472656 20.121094 -40.472656 C 19.199219 -40.472656 17.761719 -40.472656 16.613281 -40.242188 C 15.925781 -40.125 15.464844 -39.78125 15.175781 -39.261719 C 10.40625 -29.894531 4.769531 -15.347656 1.035156 -1.667969 C 0.632812 -0.746094 1.148438 -0.171875 2.183594 0 C 2.988281 0.171875 4.367188 0.230469 5.460938 0.230469 Z M 18.855469 -14.714844 C 16.097656 -14.832031 14.945312 -15.980469 15.695312 -17.992188 C 16.382812 -21.441406 17.417969 -24.777344 18.683594 -28.511719 C 19.601562 -30.699219 20.582031 -30.699219 21.5 -28.511719 C 22.765625 -24.777344 23.914062 -21.386719 24.605469 -17.992188 C 25.292969 -16.039062 24.144531 -14.832031 21.386719 -14.714844 C 20.753906 -14.660156 19.488281 -14.660156 18.855469 -14.714844 Z M 18.855469 -14.714844 "/></g></g></g><g fill="#000000" fill-opacity="1"><g transform="translate(0.772891, 351.081803)"><g><path d="M 9.328125 -5.28125 L 18.28125 -5.28125 L 18.28125 0 L 2.484375 0 L 2.484375 -28.09375 L 9.328125 -28.09375 Z M 9.328125 -5.28125 "/></g></g></g><g fill="#000000" fill-opacity="1"><g transform="translate(24.418595, 351.081803)"><g><path d="M 19.96875 -4.96875 L 9.484375 -4.96875 L 7.796875 0 L 0.640625 0 L 10.796875 -28.09375 L 18.734375 -28.09375 L 28.890625 0 L 21.65625 0 Z M 18.203125 -10.25 L 14.71875 -20.53125 L 11.28125 -10.25 Z M 18.203125 -10.25 "/></g></g></g><g fill="#000000" fill-opacity="1"><g transform="translate(58.466337, 351.081803)"><g><path d="M 27.609375 0 L 20.765625 0 L 9.328125 -17.328125 L 9.328125 0 L 2.484375 0 L 2.484375 -28.09375 L 9.328125 -28.09375 L 20.765625 -10.6875 L 20.765625 -28.09375 L 27.609375 -28.09375 Z M 27.609375 0 "/></g></g></g><g fill="#000000" fill-opacity="1"><g transform="translate(93.114198, 351.081803)"><g><path d="M 21.125 -19.203125 C 20.625 -20.140625 19.898438 -20.851562 18.953125 -21.34375 C 18.003906 -21.84375 16.890625 -22.09375 15.609375 -22.09375 C 13.390625 -22.09375 11.613281 -21.363281 10.28125 -19.90625 C 8.945312 -18.457031 8.28125 -16.515625 8.28125 -14.078125 C 8.28125 -11.492188 8.976562 -9.472656 10.375 -8.015625 C 11.78125 -6.566406 13.710938 -5.84375 16.171875 -5.84375 C 17.847656 -5.84375 19.265625 -6.269531 20.421875 -7.125 C 21.585938 -7.976562 22.4375 -9.203125 22.96875 -10.796875 L 14.28125 -10.796875 L 14.28125 -15.84375 L 29.171875 -15.84375 L 29.171875 -9.484375 C 28.660156 -7.773438 27.796875 -6.1875 26.578125 -4.71875 C 25.367188 -3.25 23.832031 -2.0625 21.96875 -1.15625 C 20.101562 -0.25 17.992188 0.203125 15.640625 0.203125 C 12.867188 0.203125 10.394531 -0.398438 8.21875 -1.609375 C 6.050781 -2.828125 4.359375 -4.515625 3.140625 -6.671875 C 1.929688 -8.835938 1.328125 -11.304688 1.328125 -14.078125 C 1.328125 -16.859375 1.929688 -19.332031 3.140625 -21.5 C 4.359375 -23.675781 6.046875 -25.367188 8.203125 -26.578125 C 10.359375 -27.796875 12.828125 -28.40625 15.609375 -28.40625 C 18.960938 -28.40625 21.796875 -27.59375 24.109375 -25.96875 C 26.421875 -24.34375 27.945312 -22.085938 28.6875 -19.203125 Z M 21.125 -19.203125 "/></g></g></g><g fill="#000000" fill-opacity="1"><g transform="translate(128.162128, 351.081803)"><g><path d="M 9.203125 -28.09375 L 9.203125 -11.28125 C 9.203125 -9.601562 9.613281 -8.3125 10.4375 -7.40625 C 11.269531 -6.5 12.484375 -6.046875 14.078125 -6.046875 C 15.679688 -6.046875 16.910156 -6.5 17.765625 -7.40625 C 18.617188 -8.3125 19.046875 -9.601562 19.046875 -11.28125 L 19.046875 -28.09375 L 25.890625 -28.09375 L 25.890625 -11.328125 C 25.890625 -8.816406 25.351562 -6.691406 24.28125 -4.953125 C 23.21875 -3.222656 21.785156 -1.914062 19.984375 -1.03125 C 18.179688 -0.15625 16.175781 0.28125 13.96875 0.28125 C 11.75 0.28125 9.765625 -0.148438 8.015625 -1.015625 C 6.273438 -1.890625 4.894531 -3.195312 3.875 -4.9375 C 2.863281 -6.6875 2.359375 -8.816406 2.359375 -11.328125 L 2.359375 -28.09375 Z M 9.203125 -28.09375 "/></g></g></g><g fill="#000000" fill-opacity="1"><g transform="translate(160.929616, 351.081803)"><g><path d="M 19.96875 -4.96875 L 9.484375 -4.96875 L 7.796875 0 L 0.640625 0 L 10.796875 -28.09375 L 18.734375 -28.09375 L 28.890625 0 L 21.65625 0 Z M 18.203125 -10.25 L 14.71875 -20.53125 L 11.28125 -10.25 Z M 18.203125 -10.25 "/></g></g></g><g fill="#000000" fill-opacity="1"><g transform="translate(194.977354, 351.081803)"><g><path d="M 21.125 -19.203125 C 20.625 -20.140625 19.898438 -20.851562 18.953125 -21.34375 C 18.003906 -21.84375 16.890625 -22.09375 15.609375 -22.09375 C 13.390625 -22.09375 11.613281 -21.363281 10.28125 -19.90625 C 8.945312 -18.457031 8.28125 -16.515625 8.28125 -14.078125 C 8.28125 -11.492188 8.976562 -9.472656 10.375 -8.015625 C 11.78125 -6.566406 13.710938 -5.84375 16.171875 -5.84375 C 17.847656 -5.84375 19.265625 -6.269531 20.421875 -7.125 C 21.585938 -7.976562 22.4375 -9.203125 22.96875 -10.796875 L 14.28125 -10.796875 L 14.28125 -15.84375 L 29.171875 -15.84375 L 29.171875 -9.484375 C 28.660156 -7.773438 27.796875 -6.1875 26.578125 -4.71875 C 25.367188 -3.25 23.832031 -2.0625 21.96875 -1.15625 C 20.101562 -0.25 17.992188 0.203125 15.640625 0.203125 C 12.867188 0.203125 10.394531 -0.398438 8.21875 -1.609375 C 6.050781 -2.828125 4.359375 -4.515625 3.140625 -6.671875 C 1.929688 -8.835938 1.328125 -11.304688 1.328125 -14.078125 C 1.328125 -16.859375 1.929688 -19.332031 3.140625 -21.5 C 4.359375 -23.675781 6.046875 -25.367188 8.203125 -26.578125 C 10.359375 -27.796875 12.828125 -28.40625 15.609375 -28.40625 C 18.960938 -28.40625 21.796875 -27.59375 24.109375 -25.96875 C 26.421875 -24.34375 27.945312 -22.085938 28.6875 -19.203125 Z M 21.125 -19.203125 "/></g></g></g><g fill="#000000" fill-opacity="1"><g transform="translate(230.025295, 351.081803)"><g><path d="M 9.328125 -22.609375 L 9.328125 -16.921875 L 18.484375 -16.921875 L 18.484375 -11.640625 L 9.328125 -11.640625 L 9.328125 -5.484375 L 19.6875 -5.484375 L 19.6875 0 L 2.484375 0 L 2.484375 -28.09375 L 19.6875 -28.09375 L 19.6875 -22.609375 Z M 9.328125 -22.609375 "/></g></g></g><g fill="#000000" fill-opacity="1"><g transform="translate(256.231509, 351.081803)"><g/></g></g><g fill="#000000" fill-opacity="1"><g transform="translate(269.27514, 351.081803)"><g><path d="M 20.765625 -28.09375 L 20.765625 -22.609375 L 9.328125 -22.609375 L 9.328125 -16.6875 L 17.890625 -16.6875 L 17.890625 -11.359375 L 9.328125 -11.359375 L 9.328125 0 L 2.484375 0 L 2.484375 -28.09375 Z M 20.765625 -28.09375 "/></g></g></g><g fill="#000000" fill-opacity="1"><g transform="translate(295.721405, 351.081803)"><g><path d="M 16.8125 0 L 10.96875 -10.609375 L 9.328125 -10.609375 L 9.328125 0 L 2.484375 0 L 2.484375 -28.09375 L 13.96875 -28.09375 C 16.175781 -28.09375 18.0625 -27.703125 19.625 -26.921875 C 21.1875 -26.148438 22.351562 -25.09375 23.125 -23.75 C 23.90625 -22.40625 24.296875 -20.90625 24.296875 -19.25 C 24.296875 -17.382812 23.765625 -15.71875 22.703125 -14.25 C 21.648438 -12.78125 20.097656 -11.738281 18.046875 -11.125 L 24.53125 0 Z M 9.328125 -15.453125 L 13.5625 -15.453125 C 14.820312 -15.453125 15.765625 -15.753906 16.390625 -16.359375 C 17.015625 -16.972656 17.328125 -17.84375 17.328125 -18.96875 C 17.328125 -20.03125 17.015625 -20.867188 16.390625 -21.484375 C 15.765625 -22.097656 14.820312 -22.40625 13.5625 -22.40625 L 9.328125 -22.40625 Z M 9.328125 -15.453125 "/></g></g></g><g fill="#000000" fill-opacity="1"><g transform="translate(326.368474, 351.081803)"><g><path d="M 9.328125 -22.609375 L 9.328125 -16.921875 L 18.484375 -16.921875 L 18.484375 -11.640625 L 9.328125 -11.640625 L 9.328125 -5.484375 L 19.6875 -5.484375 L 19.6875 0 L 2.484375 0 L 2.484375 -28.09375 L 19.6875 -28.09375 L 19.6875 -22.609375 Z M 9.328125 -22.609375 "/></g></g></g><g fill="#000000" fill-opacity="1"><g transform="translate(352.574687, 351.081803)"><g><path d="M 9.328125 -22.609375 L 9.328125 -16.921875 L 18.484375 -16.921875 L 18.484375 -11.640625 L 9.328125 -11.640625 L 9.328125 -5.484375 L 19.6875 -5.484375 L 19.6875 0 L 2.484375 0 L 2.484375 -28.09375 L 19.6875 -28.09375 L 19.6875 -22.609375 Z M 9.328125 -22.609375 "/></g></g></g></svg>