<svg xmlns="http://www.w3.org/2000/svg" xmlns:xlink="http://www.w3.org/1999/xlink" width="500" zoomAndPan="magnify" viewBox="0 0 375 374.999991" height="500" preserveAspectRatio="xMidYMid meet" version="1.0"><defs><g/><clipPath id="c5c3acf4ed"><path d="M 37 45 L 135 45 L 135 265 L 37 265 Z M 37 45 " clip-rule="nonzero"/></clipPath><clipPath id="93a2b50caa"><path d="M -22.949219 106.0625 L 134.011719 45.324219 L 195.148438 203.3125 L 38.191406 264.050781 Z M -22.949219 106.0625 " clip-rule="nonzero"/></clipPath><clipPath id="f0bdb02fd3"><path d="M 37.902344 82.515625 L 134.011719 45.324219 L 134.300781 226.859375 L 38.191406 264.050781 Z M 37.902344 82.515625 " clip-rule="nonzero"/></clipPath><clipPath id="b49f63afca"><path d="M 37 226 L 229 226 L 229 325 L 37 325 Z M 37 226 " clip-rule="nonzero"/></clipPath><clipPath id="b6088ca581"><path d="M 37.945312 263.097656 L 196.003906 202.425781 L 228.515625 287.113281 L 70.453125 347.789062 Z M 37.945312 263.097656 " clip-rule="nonzero"/></clipPath><clipPath id="544f589391"><path d="M 134.578125 226.003906 L 37.945312 263.097656 L 131.882812 324.207031 L 228.515625 287.113281 Z M 134.578125 226.003906 " clip-rule="nonzero"/></clipPath><clipPath id="d4ffa07433"><path d="M 240 111 L 337 111 L 337 331 L 240 331 Z M 240 111 " clip-rule="nonzero"/></clipPath><clipPath id="e89261a984"><path d="M 397.773438 269.6875 L 240.816406 330.425781 L 179.675781 172.4375 L 336.632812 111.699219 Z M 397.773438 269.6875 " clip-rule="nonzero"/></clipPath><clipPath id="69884aeb84"><path d="M 336.921875 293.234375 L 240.816406 330.425781 L 240.527344 148.890625 L 336.632812 111.699219 Z M 336.921875 293.234375 " clip-rule="nonzero"/></clipPath><clipPath id="13b78b227f"><path d="M 146 50 L 338 50 L 338 149 L 146 149 Z M 146 50 " clip-rule="nonzero"/></clipPath><clipPath id="24566a73a9"><path d="M 337.050781 111.890625 L 178.992188 172.5625 L 146.480469 87.875 L 304.542969 27.199219 Z M 337.050781 111.890625 " clip-rule="nonzero"/></clipPath><clipPath id="4b033163d4"><path d="M 240.417969 148.984375 L 337.050781 111.890625 L 243.113281 50.78125 L 146.480469 87.875 Z M 240.417969 148.984375 " clip-rule="nonzero"/></clipPath></defs><g clip-path="url(#c5c3acf4ed)"><g clip-path="url(#93a2b50caa)"><g clip-path="url(#f0bdb02fd3)"><path fill="#e05a47" d="M -22.949219 106.0625 L 134.011719 45.324219 L 195.148438 203.3125 L 38.191406 264.050781 Z M -22.949219 106.0625 " fill-opacity="1" fill-rule="nonzero"/></g></g></g><g clip-path="url(#b49f63afca)"><g clip-path="url(#b6088ca581)"><g clip-path="url(#544f589391)"><path fill="#cf5645" d="M 37.945312 263.097656 L 196.003906 202.425781 L 228.515625 287.113281 L 70.453125 347.789062 Z M 37.945312 263.097656 " fill-opacity="1" fill-rule="nonzero"/></g></g></g><g fill="#ffffff" fill-opacity="1"><g transform="translate(59.067147, 182.340124)"><g><path d="M 34.722656 -41.390625 C 33.882812 -43.914062 31.839844 -47.757812 30.039062 -50.582031 L 25.410156 -49.261719 C 27.214844 -46.316406 29.136719 -42.292969 29.855469 -39.828125 Z M 42.59375 -35.324219 C 39.589844 -27.214844 35.5625 -20.605469 30.21875 -15.199219 C 24.570312 -20.847656 20.246094 -27.695312 17.121094 -35.324219 Z M 57.070312 -35.324219 L 57.070312 -39.710938 L 3.242188 -39.710938 L 3.242188 -35.324219 L 12.496094 -35.324219 C 15.980469 -26.253906 20.726562 -18.441406 26.914062 -12.074219 C 20.367188 -6.546875 12.316406 -2.464844 2.402344 0.359375 C 3.304688 1.382812 4.625 3.425781 5.167969 4.503906 C 15.140625 1.320312 23.429688 -3.003906 30.15625 -8.890625 C 36.824219 -2.882812 44.996094 1.5 54.789062 4.265625 C 55.507812 3.003906 56.769531 1.140625 57.851562 0.121094 C 48.300781 -2.222656 40.191406 -6.488281 33.582031 -12.074219 C 39.589844 -18.261719 44.214844 -25.832031 47.640625 -35.324219 Z M 57.070312 -35.324219 "/></g></g></g><g clip-path="url(#d4ffa07433)"><g clip-path="url(#e89261a984)"><g clip-path="url(#69884aeb84)"><path fill="#325192" d="M 397.773438 269.6875 L 240.816406 330.425781 L 179.675781 172.4375 L 336.632812 111.699219 Z M 397.773438 269.6875 " fill-opacity="1" fill-rule="nonzero"/></g></g></g><g clip-path="url(#13b78b227f)"><g clip-path="url(#24566a73a9)"><g clip-path="url(#4b033163d4)"><path fill="#3e66ba" d="M 337.050781 111.890625 L 178.992188 172.5625 L 146.480469 87.875 L 304.542969 27.199219 Z M 337.050781 111.890625 " fill-opacity="1" fill-rule="nonzero"/></g></g></g><g fill="#ffffff" fill-opacity="1"><g transform="translate(263.37518, 229.771943)"><g><path d="M 6.875 0.289062 C 8.542969 0.289062 11.003906 0.21875 12.234375 0 C 12.957031 -0.144531 13.679688 -0.578125 13.679688 -1.449219 C 13.535156 -4.414062 14.042969 -7.457031 14.765625 -9.773438 C 15.925781 -11.507812 18.023438 -12.738281 21.570312 -12.886719 C 23.816406 -12.957031 26.855469 -12.957031 29.101562 -12.886719 C 32.574219 -12.8125 34.890625 -11.582031 35.976562 -9.773438 C 36.699219 -7.238281 37.132812 -4.34375 37.0625 -1.449219 C 37.0625 -0.578125 37.714844 -0.144531 38.367188 0 C 39.742188 0.21875 42.492188 0.289062 43.289062 0.289062 C 43.9375 0.289062 46.980469 0.21875 47.992188 0.0742188 C 49.296875 -0.0742188 49.875 -0.867188 49.367188 -2.027344 C 44.664062 -19.253906 37.640625 -37.640625 31.632812 -49.441406 C 31.269531 -50.09375 30.621094 -50.527344 29.824219 -50.671875 C 28.230469 -50.960938 26.492188 -50.960938 25.335938 -50.960938 C 24.175781 -50.960938 22.367188 -50.960938 20.921875 -50.671875 C 20.050781 -50.527344 19.472656 -50.09375 19.109375 -49.441406 C 13.101562 -37.640625 6.007812 -19.328125 1.304688 -2.097656 C 0.796875 -0.941406 1.449219 -0.21875 2.75 0 C 3.765625 0.21875 5.5 0.289062 6.875 0.289062 Z M 23.742188 -18.53125 C 20.269531 -18.675781 18.820312 -20.125 19.761719 -22.65625 C 20.628906 -27 21.933594 -31.199219 23.527344 -35.902344 C 24.683594 -38.65625 25.914062 -38.65625 27.074219 -35.902344 C 28.664062 -31.199219 30.113281 -26.929688 30.980469 -22.65625 C 31.851562 -20.195312 30.402344 -18.675781 26.929688 -18.53125 C 26.132812 -18.457031 24.539062 -18.457031 23.742188 -18.53125 Z M 23.742188 -18.53125 "/></g></g></g></svg>